<?xml version="1.0" encoding="UTF-8"?>
<svg version="1.1" xmlns="http://www.w3.org/2000/svg" width="400" height="400">
<path d="M0 0 C9.9 0 19.8 0 30 0 C30 3.3 30 6.6 30 10 C102.6 10 175.2 10 250 10 C250 6.7 250 3.4 250 0 C259.9 0 269.8 0 280 0 C280 3.3 280 6.6 280 10 C289.9 10 299.8 10 310 10 C310 13.3 310 16.6 310 20 C313.3 20 316.6 20 320 20 C320 36.5 320 53 320 70 C323.3 70 326.6 70 330 70 C330 76.6 330 83.2 330 90 C326.7 90 323.4 90 320 90 C320 93.3 320 96.6 320 100 C323.3 100 326.6 100 330 100 C330 106.6 330 113.2 330 120 C326.7 120 323.4 120 320 120 C320 136.5 320 153 320 170 C316.7 170 313.4 170 310 170 C310 179.57 310 189.14 310 199 C310.66 199 311.32 199 312 199 C312 202.63 312 206.26 312 210 C314.64 210 317.28 210 320 210 C320 210.66 320 211.32 320 212 C321.65 212 323.3 212 325 212 C325 216.29 325 220.58 325 225 C329.29 225 333.58 225 338 225 C338 232.92 338 240.84 338 249 C333.71 249 329.42 249 325 249 C325 253.29 325 257.58 325 262 C323.35 262 321.7 262 320 262 C320 264.64 320 267.28 320 270 C316.7 270 313.4 270 310 270 C310 273.3 310 276.6 310 280 C302.74 280 295.48 280 288 280 C288 282.31 288 284.62 288 287 C285.36 287 282.72 287 280 287 C280 287.99 280 288.98 280 290 C278.35 290 276.7 290 275 290 C275 292.97 275 295.94 275 299 C271.04 299 267.08 299 263 299 C263 307.25 263 315.5 263 324 C258.71 324 254.42 324 250 324 C250 328.29 250 332.58 250 337 C242.08 337 234.16 337 226 337 C226 332.71 226 328.42 226 324 C221.71 324 217.42 324 213 324 C213 319.71 213 315.42 213 311 C208.71 311 204.42 311 200 311 C200 307.04 200 303.08 200 299 C196.04 299 192.08 299 188 299 C188 295.04 188 291.08 188 287 C184.04 287 180.08 287 176 287 C176 284.69 176 282.38 176 280 C127.82 280 79.64 280 30 280 C30 283.3 30 286.6 30 290 C20.1 290 10.2 290 0 290 C0 286.7 0 283.4 0 280 C-9.9 280 -19.8 280 -30 280 C-30 276.7 -30 273.4 -30 270 C-33.3 270 -36.6 270 -40 270 C-40 253.5 -40 237 -40 220 C-36.7 220 -33.4 220 -30 220 C-30 203.5 -30 187 -30 170 C-33.3 170 -36.6 170 -40 170 C-40 153.5 -40 137 -40 120 C-43.3 120 -46.6 120 -50 120 C-50 103.5 -50 87 -50 70 C-46.7 70 -43.4 70 -40 70 C-40 66.7 -40 63.4 -40 60 C-36.7 60 -33.4 60 -30 60 C-30 56.7 -30 53.4 -30 50 C-33.3 50 -36.6 50 -40 50 C-40 46.7 -40 43.4 -40 40 C-36.7 40 -33.4 40 -30 40 C-30 36.7 -30 33.4 -30 30 C-33.3 30 -36.6 30 -40 30 C-40 23.4 -40 16.8 -40 10 C-26.8 10 -13.6 10 0 10 C0 6.7 0 3.4 0 0 Z " fill="#553A1F" transform="translate(60,50)"/>
<path d="M0 0 C72.6 0 145.2 0 220 0 C220 13.2 220 26.4 220 40 C170.5 40 121 40 70 40 C70 43.3 70 46.6 70 50 C119.5 50 169 50 220 50 C220 63.2 220 76.4 220 90 C177.1 90 134.2 90 90 90 C90 96.6 90 103.2 90 110 C93.3 110 96.6 110 100 110 C100 113.3 100 116.6 100 120 C106.6 120 113.2 120 120 120 C120 123.3 120 126.6 120 130 C123.3 130 126.6 130 130 130 C130 133.3 130 136.6 130 140 C133.3 140 136.6 140 140 140 C140 143.3 140 146.6 140 150 C143.3 150 146.6 150 150 150 C150 146.7 150 143.4 150 140 C153.3 140 156.6 140 160 140 C160 133.4 160 126.8 160 120 C156.7 120 153.4 120 150 120 C150 116.7 150 113.4 150 110 C146.7 110 143.4 110 140 110 C140 106.7 140 103.4 140 100 C166.4 100 192.8 100 220 100 C220 113.2 220 126.4 220 140 C213.4 140 206.8 140 200 140 C200 143.3 200 146.6 200 150 C206.6 150 213.2 150 220 150 C220 159.57 220 169.14 220 179 C216.04 179 212.08 179 208 179 C208 182.63 208 186.26 208 190 C192.16 190 176.32 190 160 190 C160 186.7 160 183.4 160 180 C153.4 180 146.8 180 140 180 C140 183.3 140 186.6 140 190 C93.8 190 47.6 190 0 190 C0 127.3 0 64.6 0 0 Z " fill="#B08F56" transform="translate(90,70)"/>
<path d="M0 0 C9.9 0 19.8 0 30 0 C30 3.3 30 6.6 30 10 C33.3 10 36.6 10 40 10 C40 26.5 40 43 40 60 C43.3 60 46.6 60 50 60 C50 66.6 50 73.2 50 80 C46.7 80 43.4 80 40 80 C40 83.3 40 86.6 40 90 C43.3 90 46.6 90 50 90 C50 96.6 50 103.2 50 110 C46.7 110 43.4 110 40 110 C40 126.5 40 143 40 160 C36.7 160 33.4 160 30 160 C30 169.57 30 179.14 30 189 C30.66 189 31.32 189 32 189 C32 192.63 32 196.26 32 200 C34.64 200 37.28 200 40 200 C40 200.66 40 201.32 40 202 C41.65 202 43.3 202 45 202 C45 206.29 45 210.58 45 215 C49.29 215 53.58 215 58 215 C58 222.92 58 230.84 58 239 C53.71 239 49.42 239 45 239 C45 243.29 45 247.58 45 252 C43.35 252 41.7 252 40 252 C40 254.64 40 257.28 40 260 C36.7 260 33.4 260 30 260 C30 263.3 30 266.6 30 270 C22.74 270 15.48 270 8 270 C8 272.31 8 274.62 8 277 C5.36 277 2.72 277 0 277 C0 277.99 0 278.98 0 280 C-1.65 280 -3.3 280 -5 280 C-5 282.97 -5 285.94 -5 289 C-21.17 289 -37.34 289 -54 289 C-54 285.04 -54 281.08 -54 277 C-58.29 277 -62.58 277 -67 277 C-67 272.71 -67 268.42 -67 264 C-71.29 264 -75.58 264 -80 264 C-80 255.75 -80 247.5 -80 239 C-75.71 239 -71.42 239 -67 239 C-67 235.04 -67 231.08 -67 227 C-62.71 227 -58.42 227 -54 227 C-54 223.04 -54 219.08 -54 215 C-50.04 215 -46.08 215 -42 215 C-42 210.71 -42 206.42 -42 202 C-38.04 202 -34.08 202 -30 202 C-30 197.71 -30 193.42 -30 189 C-25.71 189 -21.42 189 -17 189 C-17 181.08 -17 173.16 -17 165 C-13.04 165 -9.08 165 -5 165 C-5 168.96 -5 172.92 -5 177 C-0.71 177 3.58 177 8 177 C8 173.04 8 169.08 8 165 C5.36 165 2.72 165 0 165 C0 110.55 0 56.1 0 0 Z " fill="#6F502F" transform="translate(340,60)"/>
<path d="M0 0 C3.3 0 6.6 0 10 0 C10 3.3 10 6.6 10 10 C13.3 10 16.6 10 20 10 C20 13.3 20 16.6 20 20 C23.3 20 26.6 20 30 20 C30 23.3 30 26.6 30 30 C33.3 30 36.6 30 40 30 C40 33.3 40 36.6 40 40 C43.3 40 46.6 40 50 40 C50 43.3 50 46.6 50 50 C56.6 50 63.2 50 70 50 C70 53.3 70 56.6 70 60 C73.3 60 76.6 60 80 60 C80 63.3 80 66.6 80 70 C83.3 70 86.6 70 90 70 C90 73.3 90 76.6 90 80 C93.3 80 96.6 80 100 80 C100 76.7 100 73.4 100 70 C103.3 70 106.6 70 110 70 C110 63.4 110 56.8 110 50 C106.7 50 103.4 50 100 50 C100 46.7 100 43.4 100 40 C96.7 40 93.4 40 90 40 C90 36.7 90 33.4 90 30 C116.4 30 142.8 30 170 30 C170 43.2 170 56.4 170 70 C163.4 70 156.8 70 150 70 C150 73.3 150 76.6 150 80 C156.6 80 163.2 80 170 80 C170 89.57 170 99.14 170 109 C166.04 109 162.08 109 158 109 C158 112.63 158 116.26 158 120 C142.16 120 126.32 120 110 120 C110 116.7 110 113.4 110 110 C103.4 110 96.8 110 90 110 C90 113.3 90 116.6 90 120 C66.9 120 43.8 120 20 120 C20 116.7 20 113.4 20 110 C16.7 110 13.4 110 10 110 C10 103.4 10 96.8 10 90 C3.4 90 -3.2 90 -10 90 C-10 86.7 -10 83.4 -10 80 C-13.3 80 -16.6 80 -20 80 C-20 76.7 -20 73.4 -20 70 C-23.3 70 -26.6 70 -30 70 C-30 60.1 -30 50.2 -30 40 C-26.7 40 -23.4 40 -20 40 C-20 36.7 -20 33.4 -20 30 C-16.7 30 -13.4 30 -10 30 C-10 26.7 -10 23.4 -10 20 C-6.7 20 -3.4 20 0 20 C0 13.4 0 6.8 0 0 Z " fill="#ECECEC" transform="translate(140,140)"/>
<path d="M0 0 C9.9 0 19.8 0 30 0 C30 57.75 30 115.5 30 175 C32.64 175 35.28 175 38 175 C38 178.96 38 182.92 38 187 C33.71 187 29.42 187 25 187 C25 183.04 25 179.08 25 175 C21.04 175 17.08 175 13 175 C13 182.92 13 190.84 13 199 C8.71 199 4.42 199 0 199 C0 189.43 0 179.86 0 170 C-6.6 170 -13.2 170 -20 170 C-20 166.7 -20 163.4 -20 160 C-13.4 160 -6.8 160 0 160 C0 146.8 0 133.6 0 120 C-26.4 120 -52.8 120 -80 120 C-80 123.3 -80 126.6 -80 130 C-76.7 130 -73.4 130 -70 130 C-70 133.3 -70 136.6 -70 140 C-66.7 140 -63.4 140 -60 140 C-60 146.6 -60 153.2 -60 160 C-63.3 160 -66.6 160 -70 160 C-70 163.3 -70 166.6 -70 170 C-73.3 170 -76.6 170 -80 170 C-80 166.7 -80 163.4 -80 160 C-83.3 160 -86.6 160 -90 160 C-90 156.7 -90 153.4 -90 150 C-93.3 150 -96.6 150 -100 150 C-100 146.7 -100 143.4 -100 140 C-106.6 140 -113.2 140 -120 140 C-120 136.7 -120 133.4 -120 130 C-123.3 130 -126.6 130 -130 130 C-130 123.4 -130 116.8 -130 110 C-87.1 110 -44.2 110 0 110 C0 96.8 0 83.6 0 70 C-49.5 70 -99 70 -150 70 C-150 66.7 -150 63.4 -150 60 C-100.5 60 -51 60 0 60 C0 46.8 0 33.6 0 20 C-72.6 20 -145.2 20 -220 20 C-220 16.7 -220 13.4 -220 10 C-147.4 10 -74.8 10 0 10 C0 6.7 0 3.4 0 0 Z " fill="#6B4D2B" transform="translate(310,50)"/>
<path d="M0 0 C6.6 0 13.2 0 20 0 C20 39.6 20 79.2 20 120 C16.7 120 13.4 120 10 120 C10 103.5 10 87 10 70 C6.7 70 3.4 70 0 70 C0 132.7 0 195.4 0 260 C-9.9 260 -19.8 260 -30 260 C-30 256.7 -30 253.4 -30 250 C-33.3 250 -36.6 250 -40 250 C-40 240.1 -40 230.2 -40 220 C-36.7 220 -33.4 220 -30 220 C-30 203.5 -30 187 -30 170 C-33.3 170 -36.6 170 -40 170 C-40 153.5 -40 137 -40 120 C-43.3 120 -46.6 120 -50 120 C-50 103.5 -50 87 -50 70 C-46.7 70 -43.4 70 -40 70 C-40 66.7 -40 63.4 -40 60 C-36.7 60 -33.4 60 -30 60 C-30 56.7 -30 53.4 -30 50 C-33.3 50 -36.6 50 -40 50 C-40 46.7 -40 43.4 -40 40 C-36.7 40 -33.4 40 -30 40 C-30 36.7 -30 33.4 -30 30 C-33.3 30 -36.6 30 -40 30 C-40 23.4 -40 16.8 -40 10 C-26.8 10 -13.6 10 0 10 C0 6.7 0 3.4 0 0 Z " fill="#7D5F37" transform="translate(60,50)"/>
<path d="M0 0 C3.96 0 7.92 0 12 0 C12 3.96 12 7.92 12 12 C16.29 12 20.58 12 25 12 C25 15.96 25 19.92 25 24 C28.96 24 32.92 24 37 24 C37 28.29 37 32.58 37 37 C40.96 37 44.92 37 49 37 C49 45.25 49 53.5 49 62 C45.04 62 41.08 62 37 62 C37 70.25 37 78.5 37 87 C33.04 87 29.08 87 25 87 C25 90.96 25 94.92 25 99 C20.71 99 16.42 99 12 99 C12 103.29 12 107.58 12 112 C8.04 112 4.08 112 0 112 C0 115.96 0 119.92 0 124 C-12.21 124 -24.42 124 -37 124 C-37 120.04 -37 116.08 -37 112 C-41.29 112 -45.58 112 -50 112 C-50 107.71 -50 103.42 -50 99 C-54.29 99 -58.58 99 -63 99 C-63 90.75 -63 82.5 -63 74 C-58.71 74 -54.42 74 -50 74 C-50 70.04 -50 66.08 -50 62 C-45.71 62 -41.42 62 -37 62 C-37 58.04 -37 54.08 -37 50 C-33.04 50 -29.08 50 -25 50 C-25 45.71 -25 41.42 -25 37 C-21.04 37 -17.08 37 -13 37 C-13 32.71 -13 28.42 -13 24 C-8.71 24 -4.42 24 0 24 C0 16.08 0 8.16 0 0 Z " fill="#DBD0B4" transform="translate(323,225)"/>
<path d="M0 0 C3.3 0 6.6 0 10 0 C10 6.6 10 13.2 10 20 C19.9 20 29.8 20 40 20 C40 23.3 40 26.6 40 30 C30.1 30 20.2 30 10 30 C10 33.3 10 36.6 10 40 C23.2 40 36.4 40 50 40 C50 43.3 50 46.6 50 50 C46.7 50 43.4 50 40 50 C40 56.6 40 63.2 40 70 C43.3 70 46.6 70 50 70 C50 76.6 50 83.2 50 90 C46.7 90 43.4 90 40 90 C40 93.3 40 96.6 40 100 C36.7 100 33.4 100 30 100 C30 103.3 30 106.6 30 110 C26.7 110 23.4 110 20 110 C20 119.9 20 129.8 20 140 C23.3 140 26.6 140 30 140 C30 143.3 30 146.6 30 150 C33.3 150 36.6 150 40 150 C40 153.3 40 156.6 40 160 C46.6 160 53.2 160 60 160 C60 166.6 60 173.2 60 180 C63.3 180 66.6 180 70 180 C70 183.3 70 186.6 70 190 C46.9 190 23.8 190 0 190 C0 127.3 0 64.6 0 0 Z " fill="#9F7E4D" transform="translate(90,70)"/>
<path d="M0 0 C64.68 0 129.36 0 196 0 C196 1.65 196 3.3 196 5 C191.71 5 187.42 5 183 5 C183 6.65 183 8.3 183 10 C172.11 10 161.22 10 150 10 C150 16.6 150 23.2 150 30 C152.64 30 155.28 30 158 30 C158 33.3 158 36.6 158 40 C105.86 40 53.72 40 0 40 C0 26.8 0 13.6 0 0 Z " fill="#BA965E" transform="translate(90,270)"/>
<path d="M0 0 C42.9 0 85.8 0 130 0 C130 13.2 130 26.4 130 40 C87.1 40 44.2 40 0 40 C0 43.3 0 46.6 0 50 C-3.3 50 -6.6 50 -10 50 C-10 46.7 -10 43.4 -10 40 C-13.3 40 -16.6 40 -20 40 C-20 36.7 -20 33.4 -20 30 C-23.3 30 -26.6 30 -30 30 C-30 26.7 -30 23.4 -30 20 C-33.3 20 -36.6 20 -40 20 C-40 16.7 -40 13.4 -40 10 C-30.1 10 -20.2 10 -10 10 C-10 13.3 -10 16.6 -10 20 C-6.7 20 -3.4 20 0 20 C0 13.4 0 6.8 0 0 Z " fill="#AF8F55" transform="translate(180,120)"/>
<path d="M0 0 C26.4 0 52.8 0 80 0 C80 13.2 80 26.4 80 40 C73.4 40 66.8 40 60 40 C60 43.3 60 46.6 60 50 C66.6 50 73.2 50 80 50 C80 59.57 80 69.14 80 79 C76.04 79 72.08 79 68 79 C68 82.63 68 86.26 68 90 C52.16 90 36.32 90 20 90 C20 86.7 20 83.4 20 80 C13.4 80 6.8 80 0 80 C0 76.7 0 73.4 0 70 C6.6 70 13.2 70 20 70 C20 63.4 20 56.8 20 50 C16.7 50 13.4 50 10 50 C10 46.7 10 43.4 10 40 C13.3 40 16.6 40 20 40 C20 33.4 20 26.8 20 20 C16.7 20 13.4 20 10 20 C10 16.7 10 13.4 10 10 C6.7 10 3.4 10 0 10 C0 6.7 0 3.4 0 0 Z " fill="#AF8F55" transform="translate(230,170)"/>
<path d="M0 0 C4.29 0 8.58 0 13 0 C13 3.96 13 7.92 13 12 C8.71 12 4.42 12 0 12 C0 15.96 0 19.92 0 24 C-4.29 24 -8.58 24 -13 24 C-13 32.25 -13 40.5 -13 49 C-8.71 49 -4.42 49 0 49 C0 53.29 0 57.58 0 62 C4.29 62 8.58 62 13 62 C13 65.96 13 69.92 13 74 C25.21 74 37.42 74 50 74 C50 82.25 50 90.5 50 99 C45.71 99 41.42 99 37 99 C37 103.29 37 107.58 37 112 C29.08 112 21.16 112 13 112 C13 107.71 13 103.42 13 99 C8.71 99 4.42 99 0 99 C0 94.71 0 90.42 0 86 C-4.29 86 -8.58 86 -13 86 C-13 82.04 -13 78.08 -13 74 C-16.96 74 -20.92 74 -25 74 C-25 61.79 -25 49.58 -25 37 C-28.96 37 -32.92 37 -37 37 C-37 39.64 -37 42.28 -37 45 C-81.88 45 -126.76 45 -173 45 C-173 41.7 -173 38.4 -173 35 C-124.16 35 -75.32 35 -25 35 C-25 31.7 -25 28.4 -25 25 C-27.64 25 -30.28 25 -33 25 C-33 18.4 -33 11.8 -33 5 C-22.11 5 -11.22 5 0 5 C0 3.35 0 1.7 0 0 Z " fill="#9A927E" transform="translate(273,275)"/>
<path d="M0 0 C3.3 0 6.6 0 10 0 C10 3.3 10 6.6 10 10 C13.3 10 16.6 10 20 10 C20 13.3 20 16.6 20 20 C23.3 20 26.6 20 30 20 C30 23.3 30 26.6 30 30 C33.3 30 36.6 30 40 30 C40 33.3 40 36.6 40 40 C43.3 40 46.6 40 50 40 C50 43.3 50 46.6 50 50 C46.7 50 43.4 50 40 50 C40 53.3 40 56.6 40 60 C36.7 60 33.4 60 30 60 C30 66.6 30 73.2 30 80 C26.7 80 23.4 80 20 80 C20 83.3 20 86.6 20 90 C10.1 90 0.2 90 -10 90 C-10 86.7 -10 83.4 -10 80 C-13.3 80 -16.6 80 -20 80 C-20 76.7 -20 73.4 -20 70 C-23.3 70 -26.6 70 -30 70 C-30 60.1 -30 50.2 -30 40 C-26.7 40 -23.4 40 -20 40 C-20 36.7 -20 33.4 -20 30 C-16.7 30 -13.4 30 -10 30 C-10 26.7 -10 23.4 -10 20 C-6.7 20 -3.4 20 0 20 C0 13.4 0 6.8 0 0 Z " fill="#FFF6ED" transform="translate(140,140)"/>
<path d="M0 0 C9.9 0 19.8 0 30 0 C30 3.3 30 6.6 30 10 C33.3 10 36.6 10 40 10 C40 26.5 40 43 40 60 C43.3 60 46.6 60 50 60 C50 66.6 50 73.2 50 80 C46.7 80 43.4 80 40 80 C40 86.6 40 93.2 40 100 C26.8 100 13.6 100 0 100 C0 67 0 34 0 0 Z " fill="#84673C" transform="translate(340,60)"/>
<path d="M0 0 C6.6 0 13.2 0 20 0 C20 39.6 20 79.2 20 120 C16.7 120 13.4 120 10 120 C10 103.5 10 87 10 70 C-6.5 70 -23 70 -40 70 C-40 66.7 -40 63.4 -40 60 C-36.7 60 -33.4 60 -30 60 C-30 56.7 -30 53.4 -30 50 C-33.3 50 -36.6 50 -40 50 C-40 46.7 -40 43.4 -40 40 C-36.7 40 -33.4 40 -30 40 C-30 36.7 -30 33.4 -30 30 C-33.3 30 -36.6 30 -40 30 C-40 23.4 -40 16.8 -40 10 C-26.8 10 -13.6 10 0 10 C0 6.7 0 3.4 0 0 Z " fill="#674A2A" transform="translate(60,50)"/>
<path d="M0 0 C3.3 0 6.6 0 10 0 C10 3.3 10 6.6 10 10 C33.1 10 56.2 10 80 10 C80 13.3 80 16.6 80 20 C124.88 20 169.76 20 216 20 C216 17.36 216 14.72 216 12 C219.96 12 223.92 12 228 12 C228 20.25 228 28.5 228 37 C224.04 37 220.08 37 216 37 C216 34.69 216 32.38 216 30 C167.82 30 119.64 30 70 30 C70 33.3 70 36.6 70 40 C60.1 40 50.2 40 40 40 C40 36.7 40 33.4 40 30 C30.1 30 20.2 30 10 30 C10 26.7 10 23.4 10 20 C6.7 20 3.4 20 0 20 C0 13.4 0 6.8 0 0 Z " fill="#573D1F" transform="translate(20,300)"/>
<path d="M0 0 C3.3 0 6.6 0 10 0 C10 16.5 10 33 10 50 C13.3 50 16.6 50 20 50 C20 96.2 20 142.4 20 190 C13.4 190 6.8 190 0 190 C0 127.3 0 64.6 0 0 Z " fill="#684B29" transform="translate(60,120)"/>
<path d="M0 0 C3.3 0 6.6 0 10 0 C10 6.6 10 13.2 10 20 C16.6 20 23.2 20 30 20 C30 16.7 30 13.4 30 10 C53.1 10 76.2 10 100 10 C100 13.3 100 16.6 100 20 C103.3 20 106.6 20 110 20 C110 23.3 110 26.6 110 30 C113.3 30 116.6 30 120 30 C120 33.3 120 36.6 120 40 C80.4 40 40.8 40 0 40 C0 26.8 0 13.6 0 0 Z " fill="#AF8F55" transform="translate(90,270)"/>
<path d="M0 0 C6.6 0 13.2 0 20 0 C20 6.6 20 13.2 20 20 C23.3 20 26.6 20 30 20 C30 23.3 30 26.6 30 30 C39.9 30 49.8 30 60 30 C60 36.27 60 42.54 60 49 C56.04 49 52.08 49 48 49 C48 52.63 48 56.26 48 60 C32.16 60 16.32 60 0 60 C0 56.7 0 53.4 0 50 C-6.6 50 -13.2 50 -20 50 C-20 46.7 -20 43.4 -20 40 C-13.4 40 -6.8 40 0 40 C0 33.4 0 26.8 0 20 C-3.3 20 -6.6 20 -10 20 C-10 16.7 -10 13.4 -10 10 C-6.7 10 -3.4 10 0 10 C0 6.7 0 3.4 0 0 Z " fill="#AF8F55" transform="translate(250,200)"/>
<path d="M0 0 C6.6 0 13.2 0 20 0 C20 29.7 20 59.4 20 90 C10.1 90 0.2 90 -10 90 C-10 86.7 -10 83.4 -10 80 C-13.3 80 -16.6 80 -20 80 C-20 70.1 -20 60.2 -20 50 C-16.7 50 -13.4 50 -10 50 C-10 46.7 -10 43.4 -10 40 C-6.7 40 -3.4 40 0 40 C0 33.4 0 26.8 0 20 C3.3 20 6.6 20 10 20 C10 16.7 10 13.4 10 10 C6.7 10 3.4 10 0 10 C0 6.7 0 3.4 0 0 Z " fill="#AF8F55" transform="translate(40,220)"/>
<path d="M0 0 C3.96 0 7.92 0 12 0 C12 4.29 12 8.58 12 13 C8.04 13 4.08 13 0 13 C0 17.29 0 21.58 0 26 C-3.96 26 -7.92 26 -12 26 C-12 24.35 -12 22.7 -12 21 C-76.68 21 -141.36 21 -208 21 C-208 17.7 -208 14.4 -208 11 C-161.8 11 -115.6 11 -68 11 C-68 7.7 -68 4.4 -68 1 C-61.4 1 -54.8 1 -48 1 C-48 4.3 -48 7.6 -48 11 C-32.16 11 -16.32 11 0 11 C0 7.37 0 3.74 0 0 Z " fill="#84673C" transform="translate(298,249)"/>
<path d="M0 0 C4.29 0 8.58 0 13 0 C13 3.96 13 7.92 13 12 C8.71 12 4.42 12 0 12 C0 15.96 0 19.92 0 24 C-4.29 24 -8.58 24 -13 24 C-13 28.29 -13 32.58 -13 37 C-20.92 37 -28.84 37 -37 37 C-37 39.64 -37 42.28 -37 45 C-81.88 45 -126.76 45 -173 45 C-173 41.7 -173 38.4 -173 35 C-124.16 35 -75.32 35 -25 35 C-25 31.7 -25 28.4 -25 25 C-27.64 25 -30.28 25 -33 25 C-33 18.4 -33 11.8 -33 5 C-22.11 5 -11.22 5 0 5 C0 3.35 0 1.7 0 0 Z " fill="#6F502F" transform="translate(273,275)"/>
<path d="M0 0 C3.3 0 6.6 0 10 0 C10 3.3 10 6.6 10 10 C16.6 10 23.2 10 30 10 C30 16.6 30 23.2 30 30 C23.4 30 16.8 30 10 30 C10 36.6 10 43.2 10 50 C-13.1 50 -36.2 50 -60 50 C-60 46.7 -60 43.4 -60 40 C-63.3 40 -66.6 40 -70 40 C-70 36.7 -70 33.4 -70 30 C-63.4 30 -56.8 30 -50 30 C-50 33.3 -50 36.6 -50 40 C-43.4 40 -36.8 40 -30 40 C-30 36.7 -30 33.4 -30 30 C-26.7 30 -23.4 30 -20 30 C-20 26.7 -20 23.4 -20 20 C-16.7 20 -13.4 20 -10 20 C-10 16.7 -10 13.4 -10 10 C-6.7 10 -3.4 10 0 10 C0 6.7 0 3.4 0 0 Z " fill="#B7AB9B" transform="translate(220,210)"/>
<path d="M0 0 C3.96 0 7.92 0 12 0 C12 3.63 12 7.26 12 11 C14.64 11 17.28 11 20 11 C20 11.66 20 12.32 20 13 C21.65 13 23.3 13 25 13 C25 17.29 25 21.58 25 26 C29.29 26 33.58 26 38 26 C38 33.92 38 41.84 38 50 C33.71 50 29.42 50 25 50 C25 54.29 25 58.58 25 63 C23.35 63 21.7 63 20 63 C20 65.64 20 68.28 20 71 C16.7 71 13.4 71 10 71 C10 74.3 10 77.6 10 81 C2.74 81 -4.52 81 -12 81 C-12 83.31 -12 85.62 -12 88 C-14.64 88 -17.28 88 -20 88 C-20 88.99 -20 89.98 -20 91 C-21.65 91 -23.3 91 -25 91 C-25 93.97 -25 96.94 -25 100 C-28.96 100 -32.92 100 -37 100 C-37 96.04 -37 92.08 -37 88 C-33.04 88 -29.08 88 -25 88 C-25 83.71 -25 79.42 -25 75 C-20.71 75 -16.42 75 -12 75 C-12 71.04 -12 67.08 -12 63 C-8.04 63 -4.08 63 0 63 C0 54.75 0 46.5 0 38 C3.96 38 7.92 38 12 38 C12 29.75 12 21.5 12 13 C8.04 13 4.08 13 0 13 C0 8.71 0 4.42 0 0 Z " fill="#5D4324" transform="translate(360,249)"/>
<path d="M0 0 C72.6 0 145.2 0 220 0 C220 3.3 220 6.6 220 10 C147.4 10 74.8 10 0 10 C0 6.7 0 3.4 0 0 Z " fill="#84673C" transform="translate(90,60)"/>
<path d="M0 0 C9.9 0 19.8 0 30 0 C30 3.3 30 6.6 30 10 C43.2 10 56.4 10 70 10 C70 13.3 70 16.6 70 20 C86.5 20 103 20 120 20 C120 23.3 120 26.6 120 30 C93.6 30 67.2 30 40 30 C40 33.3 40 36.6 40 40 C36.7 40 33.4 40 30 40 C30 36.7 30 33.4 30 30 C26.7 30 23.4 30 20 30 C20 26.7 20 23.4 20 20 C16.7 20 13.4 20 10 20 C10 16.7 10 13.4 10 10 C6.7 10 3.4 10 0 10 C0 6.7 0 3.4 0 0 Z " fill="#9F7E4D" transform="translate(140,130)"/>
<path d="M0 0 C3.3 0 6.6 0 10 0 C10 57.75 10 115.5 10 175 C12.64 175 15.28 175 18 175 C18 178.96 18 182.92 18 187 C13.71 187 9.42 187 5 187 C5 183.04 5 179.08 5 175 C1.04 175 -2.92 175 -7 175 C-7 170.71 -7 166.42 -7 162 C-4.69 162 -2.38 162 0 162 C0 108.54 0 55.08 0 0 Z " fill="#553A1F" transform="translate(330,50)"/>
<path d="M0 0 C16.5 0 33 0 50 0 C50 13.2 50 26.4 50 40 C36.8 40 23.6 40 10 40 C10 36.7 10 33.4 10 30 C6.7 30 3.4 30 0 30 C0 20.1 0 10.2 0 0 Z " fill="#AF8F55" transform="translate(10,120)"/>
<path d="M0 0 C3.3 0 6.6 0 10 0 C10 3.3 10 6.6 10 10 C13.3 10 16.6 10 20 10 C20 16.6 20 23.2 20 30 C16.7 30 13.4 30 10 30 C10 33.3 10 36.6 10 40 C6.7 40 3.4 40 0 40 C0 46.6 0 53.2 0 60 C-3.3 60 -6.6 60 -10 60 C-10 66.6 -10 73.2 -10 80 C-13.3 80 -16.6 80 -20 80 C-20 76.7 -20 73.4 -20 70 C-23.3 70 -26.6 70 -30 70 C-30 60.1 -30 50.2 -30 40 C-26.7 40 -23.4 40 -20 40 C-20 36.7 -20 33.4 -20 30 C-16.7 30 -13.4 30 -10 30 C-10 26.7 -10 23.4 -10 20 C-6.7 20 -3.4 20 0 20 C0 13.4 0 6.8 0 0 Z " fill="#FFFFFF" transform="translate(140,140)"/>
<path d="M0 0 C16.5 0 33 0 50 0 C50 6.6 50 13.2 50 20 C46.7 20 43.4 20 40 20 C40 26.6 40 33.2 40 40 C26.8 40 13.6 40 0 40 C0 26.8 0 13.6 0 0 Z " fill="#BE9A61" transform="translate(340,120)"/>
<path d="M0 0 C3.3 0 6.6 0 10 0 C10 3.3 10 6.6 10 10 C13.3 10 16.6 10 20 10 C20 13.3 20 16.6 20 20 C26.6 20 33.2 20 40 20 C40 26.6 40 33.2 40 40 C43.3 40 46.6 40 50 40 C50 43.3 50 46.6 50 50 C30.2 50 10.4 50 -10 50 C-10 46.7 -10 43.4 -10 40 C-0.1 40 9.8 40 20 40 C20 36.7 20 33.4 20 30 C10.1 30 0.2 30 -10 30 C-10 23.4 -10 16.8 -10 10 C-6.7 10 -3.4 10 0 10 C0 6.7 0 3.4 0 0 Z " fill="#AF8F55" transform="translate(110,210)"/>
<path d="M0 0 C3.96 0 7.92 0 12 0 C12 3.96 12 7.92 12 12 C16.29 12 20.58 12 25 12 C25 15.96 25 19.92 25 24 C28.96 24 32.92 24 37 24 C37 28.29 37 32.58 37 37 C40.96 37 44.92 37 49 37 C49 45.25 49 53.5 49 62 C41.08 62 33.16 62 25 62 C25 58.04 25 54.08 25 50 C20.71 50 16.42 50 12 50 C12 45.71 12 41.42 12 37 C8.04 37 4.08 37 0 37 C0 24.79 0 12.58 0 0 Z " fill="#BCB29C" transform="translate(323,225)"/>
<path d="M0 0 C9.9 0 19.8 0 30 0 C30 3.3 30 6.6 30 10 C33.3 10 36.6 10 40 10 C40 13.3 40 16.6 40 20 C43.3 20 46.6 20 50 20 C50 26.6 50 33.2 50 40 C46.7 40 43.4 40 40 40 C40 43.3 40 46.6 40 50 C36.7 50 33.4 50 30 50 C30 46.7 30 43.4 30 40 C26.7 40 23.4 40 20 40 C20 36.7 20 33.4 20 30 C16.7 30 13.4 30 10 30 C10 26.7 10 23.4 10 20 C3.4 20 -3.2 20 -10 20 C-10 16.7 -10 13.4 -10 10 C-6.7 10 -3.4 10 0 10 C0 6.7 0 3.4 0 0 Z " fill="#3E4639" transform="translate(200,170)"/>
<path d="M0 0 C6.6 0 13.2 0 20 0 C20 3.3 20 6.6 20 10 C23.3 10 26.6 10 30 10 C30 19.9 30 29.8 30 40 C26.7 40 23.4 40 20 40 C20 48.91 20 57.82 20 67 C16.04 67 12.08 67 8 67 C8 63.04 8 59.08 8 55 C5.36 55 2.72 55 0 55 C0 36.85 0 18.7 0 0 Z " fill="#967647" transform="translate(340,170)"/>
<path d="M0 0 C42.9 0 85.8 0 130 0 C130 3.3 130 6.6 130 10 C93.7 10 57.4 10 20 10 C20 13.3 20 16.6 20 20 C13.4 20 6.8 20 0 20 C0 13.4 0 6.8 0 0 Z " fill="#84673C" transform="translate(180,160)"/>
<path d="M0 0 C49.5 0 99 0 150 0 C150 3.3 150 6.6 150 10 C100.5 10 51 10 0 10 C0 6.7 0 3.4 0 0 Z " fill="#84673C" transform="translate(160,110)"/>
<path d="M0 0 C3.3 0 6.6 0 10 0 C10 13.86 10 27.72 10 42 C7.69 42 5.38 42 3 42 C3 54.21 3 66.42 3 79 C-1.29 79 -5.58 79 -10 79 C-10 69.43 -10 59.86 -10 50 C-16.6 50 -23.2 50 -30 50 C-30 46.7 -30 43.4 -30 40 C-23.4 40 -16.8 40 -10 40 C-10 30.1 -10 20.2 -10 10 C-6.7 10 -3.4 10 0 10 C0 6.7 0 3.4 0 0 Z " fill="#664B28" transform="translate(320,170)"/>
<path d="M0 0 C9.9 0 19.8 0 30 0 C30 13.2 30 26.4 30 40 C20.1 40 10.2 40 0 40 C0 26.8 0 13.6 0 0 Z " fill="#AF8F55" transform="translate(30,170)"/>
<path d="M0 0 C3.3 0 6.6 0 10 0 C10 39.6 10 79.2 10 120 C6.7 120 3.4 120 0 120 C0 80.4 0 40.8 0 0 Z " fill="#8B673C" transform="translate(320,50)"/>
<path d="M0 0 C3.3 0 6.6 0 10 0 C10 39.6 10 79.2 10 120 C6.7 120 3.4 120 0 120 C0 80.4 0 40.8 0 0 Z " fill="#8B673C" transform="translate(70,50)"/>
<path d="M0 0 C3.3 0 6.6 0 10 0 C10 36.3 10 72.6 10 110 C6.7 110 3.4 110 0 110 C0 73.7 0 37.4 0 0 Z " fill="#8B673C" transform="translate(70,200)"/>
<path d="M0 0 C3.3 0 6.6 0 10 0 C10 3.3 10 6.6 10 10 C13.3 10 16.6 10 20 10 C20 13.3 20 16.6 20 20 C23.3 20 26.6 20 30 20 C30 23.3 30 26.6 30 30 C16.8 30 3.6 30 -10 30 C-10 36.6 -10 43.2 -10 50 C-13.3 50 -16.6 50 -20 50 C-20 40.1 -20 30.2 -20 20 C-16.7 20 -13.4 20 -10 20 C-10 16.7 -10 13.4 -10 10 C-6.7 10 -3.4 10 0 10 C0 6.7 0 3.4 0 0 Z " fill="#FFF6EC" transform="translate(160,160)"/>
<path d="M0 0 C36.3 0 72.6 0 110 0 C110 3.3 110 6.6 110 10 C73.7 10 37.4 10 0 10 C0 6.7 0 3.4 0 0 Z " fill="#C29D62" transform="translate(200,120)"/>
<path d="M0 0 C36.3 0 72.6 0 110 0 C110 3.3 110 6.6 110 10 C73.7 10 37.4 10 0 10 C0 6.7 0 3.4 0 0 Z " fill="#C29D62" transform="translate(200,70)"/>
<path d="M0 0 C33 0 66 0 100 0 C100 3.3 100 6.6 100 10 C67 10 34 10 0 10 C0 6.7 0 3.4 0 0 Z " fill="#84673C" transform="translate(90,260)"/>
<path d="M0 0 C6.6 0 13.2 0 20 0 C20 16.5 20 33 20 50 C10.1 50 0.2 50 -10 50 C-10 46.7 -10 43.4 -10 40 C-6.7 40 -3.4 40 0 40 C0 33.4 0 26.8 0 20 C3.3 20 6.6 20 10 20 C10 16.7 10 13.4 10 10 C6.7 10 3.4 10 0 10 C0 6.7 0 3.4 0 0 Z " fill="#84673C" transform="translate(40,220)"/>
<path d="M0 0 C9.9 0 19.8 0 30 0 C30 3.3 30 6.6 30 10 C33.3 10 36.6 10 40 10 C40 13.3 40 16.6 40 20 C43.3 20 46.6 20 50 20 C50 26.6 50 33.2 50 40 C46.7 40 43.4 40 40 40 C40 36.7 40 33.4 40 30 C33.4 30 26.8 30 20 30 C20 26.7 20 23.4 20 20 C16.7 20 13.4 20 10 20 C10 16.7 10 13.4 10 10 C6.7 10 3.4 10 0 10 C0 6.7 0 3.4 0 0 Z " fill="#DADADA" transform="translate(230,170)"/>
<path d="M0 0 C9.9 0 19.8 0 30 0 C30 3.3 30 6.6 30 10 C36.6 10 43.2 10 50 10 C50 13.3 50 16.6 50 20 C46.7 20 43.4 20 40 20 C40 26.6 40 33.2 40 40 C36.7 40 33.4 40 30 40 C30 36.7 30 33.4 30 30 C26.7 30 23.4 30 20 30 C20 26.7 20 23.4 20 20 C16.7 20 13.4 20 10 20 C10 16.7 10 13.4 10 10 C6.7 10 3.4 10 0 10 C0 6.7 0 3.4 0 0 Z " fill="#B8945F" transform="translate(140,130)"/>
<path d="M0 0 C3.96 0 7.92 0 12 0 C12 3.63 12 7.26 12 11 C14.64 11 17.28 11 20 11 C20 11.66 20 12.32 20 13 C21.65 13 23.3 13 25 13 C25 17.29 25 21.58 25 26 C29.29 26 33.58 26 38 26 C38 33.92 38 41.84 38 50 C29.42 50 20.84 50 12 50 C12 37.79 12 25.58 12 13 C8.04 13 4.08 13 0 13 C0 8.71 0 4.42 0 0 Z " fill="#38342A" transform="translate(360,249)"/>
<path d="M0 0 C12.21 0 24.42 0 37 0 C37 8.25 37 16.5 37 25 C33.04 25 29.08 25 25 25 C25 28.96 25 32.92 25 37 C20.71 37 16.42 37 12 37 C12 28.75 12 20.5 12 12 C8.04 12 4.08 12 0 12 C0 8.04 0 4.08 0 0 Z " fill="#BCB29C" transform="translate(323,287)"/>
<path d="M0 0 C6.6 0 13.2 0 20 0 C20 3.3 20 6.6 20 10 C16.7 10 13.4 10 10 10 C10 16.6 10 23.2 10 30 C19.9 30 29.8 30 40 30 C40 33.3 40 36.6 40 40 C30.1 40 20.2 40 10 40 C10 43.3 10 46.6 10 50 C6.7 50 3.4 50 0 50 C0 33.5 0 17 0 0 Z " fill="#9F7E4D" transform="translate(90,210)"/>
<path d="M0 0 C9.9 0 19.8 0 30 0 C30 3.3 30 6.6 30 10 C26.7 10 23.4 10 20 10 C20 19.9 20 29.8 20 40 C13.4 40 6.8 40 0 40 C0 26.8 0 13.6 0 0 Z " fill="#9F7E4D" transform="translate(90,170)"/>
<path d="M0 0 C9.9 0 19.8 0 30 0 C30 13.2 30 26.4 30 40 C23.4 40 16.8 40 10 40 C10 30.1 10 20.2 10 10 C6.7 10 3.4 10 0 10 C0 6.7 0 3.4 0 0 Z " fill="#AF8F55" transform="translate(30,70)"/>
<path d="M0 0 C6.6 0 13.2 0 20 0 C20 3.3 20 6.6 20 10 C26.6 10 33.2 10 40 10 C40 6.7 40 3.4 40 0 C43.3 0 46.6 0 50 0 C50 3.3 50 6.6 50 10 C53.3 10 56.6 10 60 10 C60 13.3 60 16.6 60 20 C43.5 20 27 20 10 20 C10 16.7 10 13.4 10 10 C6.7 10 3.4 10 0 10 C0 6.7 0 3.4 0 0 Z " fill="#AFAFAF" transform="translate(150,240)"/>
<path d="M0 0 C6.6 0 13.2 0 20 0 C20 3.3 20 6.6 20 10 C36.5 10 53 10 70 10 C70 13.3 70 16.6 70 20 C50.2 20 30.4 20 10 20 C10 16.7 10 13.4 10 10 C6.7 10 3.4 10 0 10 C0 6.7 0 3.4 0 0 Z " fill="#9F7E4D" transform="translate(190,90)"/>
<path d="M0 0 C6.6 0 13.2 0 20 0 C20 13.2 20 26.4 20 40 C13.4 40 6.8 40 0 40 C0 26.8 0 13.6 0 0 Z " fill="#B8945F" transform="translate(350,70)"/>
<path d="M0 0 C3.3 0 6.6 0 10 0 C10 9.9 10 19.8 10 30 C16.6 30 23.2 30 30 30 C30 33.3 30 36.6 30 40 C16.8 40 3.6 40 -10 40 C-10 36.7 -10 33.4 -10 30 C-6.7 30 -3.4 30 0 30 C0 26.7 0 23.4 0 20 C-3.3 20 -6.6 20 -10 20 C-10 16.7 -10 13.4 -10 10 C-6.7 10 -3.4 10 0 10 C0 6.7 0 3.4 0 0 Z " fill="#84673C" transform="translate(30,80)"/>
<path d="M0 0 C4.29 0 8.58 0 13 0 C13 8.25 13 16.5 13 25 C8.71 25 4.42 25 0 25 C0 29.29 0 33.58 0 38 C-7.92 38 -15.84 38 -24 38 C-24 33.71 -24 29.42 -24 25 C-20.04 25 -16.08 25 -12 25 C-12 20.71 -12 16.42 -12 12 C-8.04 12 -4.08 12 0 12 C0 8.04 0 4.08 0 0 Z " fill="#38342A" transform="translate(310,349)"/>
<path d="M0 0 C4.29 0 8.58 0 13 0 C13 3.96 13 7.92 13 12 C8.71 12 4.42 12 0 12 C0 15.96 0 19.92 0 24 C-16.335 24.495 -16.335 24.495 -33 25 C-33 18.4 -33 11.8 -33 5 C-22.11 5 -11.22 5 0 5 C0 3.35 0 1.7 0 0 Z " fill="#B19057" transform="translate(273,275)"/>
<path d="M0 0 C8.25 0 16.5 0 25 0 C25 3.96 25 7.92 25 12 C28.96 12 32.92 12 37 12 C37 16.29 37 20.58 37 25 C33.04 25 29.08 25 25 25 C25 28.96 25 32.92 25 37 C20.71 37 16.42 37 12 37 C12 28.75 12 20.5 12 12 C8.04 12 4.08 12 0 12 C0 8.04 0 4.08 0 0 Z " fill="#BCB29C" transform="translate(298,312)"/>
<path d="M0 0 C12.21 0 24.42 0 37 0 C37 8.25 37 16.5 37 25 C29.08 25 21.16 25 13 25 C13 21.04 13 17.08 13 13 C8.71 13 4.42 13 0 13 C0 8.71 0 4.42 0 0 Z " fill="#BCB29C" transform="translate(335,262)"/>
<path d="M0 0 C13.2 0 26.4 0 40 0 C40 6.6 40 13.2 40 20 C30.1 20 20.2 20 10 20 C10 16.7 10 13.4 10 10 C6.7 10 3.4 10 0 10 C0 6.7 0 3.4 0 0 Z " fill="#BE9A61" transform="translate(20,290)"/>
<path d="M0 0 C3.3 0 6.6 0 10 0 C10 6.6 10 13.2 10 20 C19.9 20 29.8 20 40 20 C40 23.3 40 26.6 40 30 C30.1 30 20.2 30 10 30 C10 33.3 10 36.6 10 40 C6.7 40 3.4 40 0 40 C0 26.8 0 13.6 0 0 Z " fill="#9F7E4D" transform="translate(90,270)"/>
<path d="M0 0 C3.3 0 6.6 0 10 0 C10 3.3 10 6.6 10 10 C13.3 10 16.6 10 20 10 C20 16.6 20 23.2 20 30 C10.1 30 0.2 30 -10 30 C-10 23.4 -10 16.8 -10 10 C-6.7 10 -3.4 10 0 10 C0 6.7 0 3.4 0 0 Z " fill="#AF8F55" transform="translate(110,210)"/>
<path d="M0 0 C6.6 0 13.2 0 20 0 C20 13.2 20 26.4 20 40 C16.7 40 13.4 40 10 40 C10 36.7 10 33.4 10 30 C6.7 30 3.4 30 0 30 C0 20.1 0 10.2 0 0 Z " fill="#FFF8F1" transform="translate(110,180)"/>
<path d="M0 0 C3.3 0 6.6 0 10 0 C10 3.3 10 6.6 10 10 C13.3 10 16.6 10 20 10 C20 19.9 20 29.8 20 40 C13.4 40 6.8 40 0 40 C0 26.8 0 13.6 0 0 Z " fill="#BB9760" transform="translate(350,170)"/>
<path d="M0 0 C6.6 0 13.2 0 20 0 C20 3.3 20 6.6 20 10 C23.3 10 26.6 10 30 10 C30 13.3 30 16.6 30 20 C33.3 20 36.6 20 40 20 C40 26.6 40 33.2 40 40 C36.7 40 33.4 40 30 40 C30 36.7 30 33.4 30 30 C26.7 30 23.4 30 20 30 C20 26.7 20 23.4 20 20 C16.7 20 13.4 20 10 20 C10 16.7 10 13.4 10 10 C6.7 10 3.4 10 0 10 C0 6.7 0 3.4 0 0 Z " fill="#2D3429" transform="translate(210,170)"/>
<path d="M0 0 C16.5 0 33 0 50 0 C50 6.6 50 13.2 50 20 C46.7 20 43.4 20 40 20 C40 16.7 40 13.4 40 10 C30.1 10 20.2 10 10 10 C10 13.3 10 16.6 10 20 C6.7 20 3.4 20 0 20 C0 13.4 0 6.8 0 0 Z " fill="#CCAFA5" transform="translate(130,120)"/>
<path d="M0 0 C9.9 0 19.8 0 30 0 C30 3.3 30 6.6 30 10 C23.4 10 16.8 10 10 10 C10 23.2 10 36.4 10 50 C6.7 50 3.4 50 0 50 C0 33.5 0 17 0 0 Z " fill="#9F7E4D" transform="translate(340,60)"/>
<path d="M0 0 C6.6 0 13.2 0 20 0 C20 3.3 20 6.6 20 10 C16.7 10 13.4 10 10 10 C10 19.57 10 29.14 10 39 C2.74 39 -4.52 39 -12 39 C-12 35.04 -12 31.08 -12 27 C-8.04 27 -4.08 27 0 27 C0 18.09 0 9.18 0 0 Z " fill="#84673C" transform="translate(360,210)"/>
<path d="M0 0 C3.3 0 6.6 0 10 0 C10 6.6 10 13.2 10 20 C16.6 20 23.2 20 30 20 C30 23.3 30 26.6 30 30 C20.1 30 10.2 30 0 30 C0 26.7 0 23.4 0 20 C-3.3 20 -6.6 20 -10 20 C-10 16.7 -10 13.4 -10 10 C-6.7 10 -3.4 10 0 10 C0 6.7 0 3.4 0 0 Z " fill="#C29D62" transform="translate(280,200)"/>
<path d="M0 0 C6.6 0 13.2 0 20 0 C20 6.6 20 13.2 20 20 C13.4 20 6.8 20 0 20 C0 23.3 0 26.6 0 30 C-3.3 30 -6.6 30 -10 30 C-10 23.4 -10 16.8 -10 10 C-6.7 10 -3.4 10 0 10 C0 6.7 0 3.4 0 0 Z " fill="#CFC6BB" transform="translate(230,220)"/>
<path d="M0 0 C6.6 0 13.2 0 20 0 C20 3.3 20 6.6 20 10 C16.7 10 13.4 10 10 10 C10 19.9 10 29.8 10 40 C6.7 40 3.4 40 0 40 C0 33.4 0 26.8 0 20 C-3.3 20 -6.6 20 -10 20 C-10 16.7 -10 13.4 -10 10 C-6.7 10 -3.4 10 0 10 C0 6.7 0 3.4 0 0 Z " fill="#B7AB9B" transform="translate(250,200)"/>
<path d="M0 0 C9.9 0 19.8 0 30 0 C30 6.6 30 13.2 30 20 C20.1 20 10.2 20 0 20 C0 13.4 0 6.8 0 0 Z " fill="#AF8F55" transform="translate(100,120)"/>
<path d="M0 0 C19.8 0 39.6 0 60 0 C60 3.3 60 6.6 60 10 C40.2 10 20.4 10 0 10 C0 6.7 0 3.4 0 0 Z " fill="#C29D62" transform="translate(130,70)"/>
<path d="M0 0 C3.3 0 6.6 0 10 0 C10 3.3 10 6.6 10 10 C19.9 10 29.8 10 40 10 C40 13.3 40 16.6 40 20 C26.8 20 13.6 20 0 20 C0 13.4 0 6.8 0 0 Z " fill="#6F502F" transform="translate(20,300)"/>
<path d="M0 0 C3.3 0 6.6 0 10 0 C10 16.5 10 33 10 50 C6.7 50 3.4 50 0 50 C0 33.5 0 17 0 0 Z " fill="#7C5B36" transform="translate(70,260)"/>
<path d="M0 0 C6.6 0 13.2 0 20 0 C20 9.9 20 19.8 20 30 C13.4 30 6.8 30 0 30 C0 26.7 0 23.4 0 20 C3.3 20 6.6 20 10 20 C10 16.7 10 13.4 10 10 C6.7 10 3.4 10 0 10 C0 6.7 0 3.4 0 0 Z " fill="#AF8F55" transform="translate(40,220)"/>
<path d="M0 0 C6.6 0 13.2 0 20 0 C20 3.3 20 6.6 20 10 C16.7 10 13.4 10 10 10 C10 13.3 10 16.6 10 20 C6.7 20 3.4 20 0 20 C0 23.3 0 26.6 0 30 C-3.3 30 -6.6 30 -10 30 C-10 23.4 -10 16.8 -10 10 C-6.7 10 -3.4 10 0 10 C0 6.7 0 3.4 0 0 Z " fill="#DADADA" transform="translate(180,190)"/>
<path d="M0 0 C16.5 0 33 0 50 0 C50 3.3 50 6.6 50 10 C33.5 10 17 10 0 10 C0 6.7 0 3.4 0 0 Z " fill="#C29D62" transform="translate(260,170)"/>
<path d="M0 0 C9.9 0 19.8 0 30 0 C30 3.3 30 6.6 30 10 C26.7 10 23.4 10 20 10 C20 16.6 20 23.2 20 30 C16.7 30 13.4 30 10 30 C10 23.4 10 16.8 10 10 C6.7 10 3.4 10 0 10 C0 6.7 0 3.4 0 0 Z " fill="#FFFFFF" transform="translate(120,170)"/>
<path d="M0 0 C3.3 0 6.6 0 10 0 C10 6.6 10 13.2 10 20 C-3.2 20 -16.4 20 -30 20 C-30 16.7 -30 13.4 -30 10 C-20.1 10 -10.2 10 0 10 C0 6.7 0 3.4 0 0 Z " fill="#B19057" transform="translate(130,140)"/>
<path d="M0 0 C3.3 0 6.6 0 10 0 C10 6.6 10 13.2 10 20 C6.7 20 3.4 20 0 20 C0 23.3 0 26.6 0 30 C-3.3 30 -6.6 30 -10 30 C-10 26.7 -10 23.4 -10 20 C-13.3 20 -16.6 20 -20 20 C-20 16.7 -20 13.4 -20 10 C-13.4 10 -6.8 10 0 10 C0 6.7 0 3.4 0 0 Z " fill="#AF8F55" transform="translate(380,120)"/>
<path d="M0 0 C16.5 0 33 0 50 0 C50 3.3 50 6.6 50 10 C33.5 10 17 10 0 10 C0 6.7 0 3.4 0 0 Z " fill="#84673C" transform="translate(90,110)"/>
<path d="M0 0 C3.3 0 6.6 0 10 0 C10 16.5 10 33 10 50 C6.7 50 3.4 50 0 50 C0 33.5 0 17 0 0 Z " fill="#805E36" transform="translate(320,50)"/>
<path d="M0 0 C3.3 0 6.6 0 10 0 C10 16.5 10 33 10 50 C6.7 50 3.4 50 0 50 C0 33.5 0 17 0 0 Z " fill="#805E36" transform="translate(70,50)"/>
<path d="M0 0 C13.2 0 26.4 0 40 0 C40 3.3 40 6.6 40 10 C30.1 10 20.2 10 10 10 C10 13.3 10 16.6 10 20 C6.7 20 3.4 20 0 20 C0 13.4 0 6.8 0 0 Z " fill="#84673C" transform="translate(20,60)"/>
<path d="M0 0 C13.2 0 26.4 0 40 0 C40 6.27 40 12.54 40 19 C36.7 19 33.4 19 30 19 C30 16.03 30 13.06 30 10 C20.1 10 10.2 10 0 10 C0 6.7 0 3.4 0 0 Z " fill="#AF8F55" transform="translate(270,230)"/>
<path d="M0 0 C3.96 0 7.92 0 12 0 C12 3.96 12 7.92 12 12 C16.29 12 20.58 12 25 12 C25 16.29 25 20.58 25 25 C16.75 25 8.5 25 0 25 C0 16.75 0 8.5 0 0 Z " fill="#9A927E" transform="translate(248,312)"/>
<path d="M0 0 C3.96 0 7.92 0 12 0 C12 3.96 12 7.92 12 12 C16.29 12 20.58 12 25 12 C25 16.29 25 20.58 25 25 C16.75 25 8.5 25 0 25 C0 16.75 0 8.5 0 0 Z " fill="#38342A" transform="translate(360,287)"/>
<path d="M0 0 C8.25 0 16.5 0 25 0 C25 7.92 25 15.84 25 24 C20.71 24 16.42 24 12 24 C12 20.04 12 16.08 12 12 C8.04 12 4.08 12 0 12 C0 8.04 0 4.08 0 0 Z " fill="#9A927E" transform="translate(248,337)"/>
<path d="M0 0 C7.92 0 15.84 0 24 0 C24 3.96 24 7.92 24 12 C20.04 12 16.08 12 12 12 C12 16.29 12 20.58 12 25 C8.04 25 4.08 25 0 25 C0 16.75 0 8.5 0 0 Z " fill="#BCB29C" transform="translate(286,349)"/>
<path d="M0 0 C3.96 0 7.92 0 12 0 C12 3.96 12 7.92 12 12 C16.29 12 20.58 12 25 12 C25 15.96 25 19.92 25 24 C16.75 24 8.5 24 0 24 C0 16.08 0 8.16 0 0 Z " fill="#C6BCA5" transform="translate(323,225)"/>
<path d="M0 0 C6.6 0 13.2 0 20 0 C20 6.6 20 13.2 20 20 C13.4 20 6.8 20 0 20 C0 13.4 0 6.8 0 0 Z " fill="#B8945F" transform="translate(100,270)"/>
<path d="M0 0 C13.2 0 26.4 0 40 0 C40 3.3 40 6.6 40 10 C26.8 10 13.6 10 0 10 C0 6.7 0 3.4 0 0 Z " fill="#645A4E" transform="translate(190,260)"/>
<path d="M0 0 C9.9 0 19.8 0 30 0 C30 6.6 30 13.2 30 20 C26.7 20 23.4 20 20 20 C20 16.7 20 13.4 20 10 C13.4 10 6.8 10 0 10 C0 6.7 0 3.4 0 0 Z " fill="#9F7E4D" transform="translate(230,240)"/>
<path d="M0 0 C3.3 0 6.6 0 10 0 C10 3.3 10 6.6 10 10 C13.3 10 16.6 10 20 10 C20 13.3 20 16.6 20 20 C16.7 20 13.4 20 10 20 C10 23.3 10 26.6 10 30 C6.7 30 3.4 30 0 30 C0 20.1 0 10.2 0 0 Z " fill="#968674" transform="translate(260,210)"/>
<path d="M0 0 C6.6 0 13.2 0 20 0 C20 3.3 20 6.6 20 10 C23.3 10 26.6 10 30 10 C30 13.3 30 16.6 30 20 C23.4 20 16.8 20 10 20 C10 16.7 10 13.4 10 10 C6.7 10 3.4 10 0 10 C0 6.7 0 3.4 0 0 Z " fill="#AF8F55" transform="translate(280,190)"/>
<path d="M0 0 C6.6 0 13.2 0 20 0 C20 3.3 20 6.6 20 10 C16.7 10 13.4 10 10 10 C10 16.6 10 23.2 10 30 C6.7 30 3.4 30 0 30 C0 20.1 0 10.2 0 0 Z " fill="#FFEDD9" transform="translate(140,180)"/>
<path d="M0 0 C13.2 0 26.4 0 40 0 C40 3.3 40 6.6 40 10 C26.8 10 13.6 10 0 10 C0 6.7 0 3.4 0 0 Z " fill="#84673C" transform="translate(90,160)"/>
<path d="M0 0 C13.2 0 26.4 0 40 0 C40 3.3 40 6.6 40 10 C26.8 10 13.6 10 0 10 C0 6.7 0 3.4 0 0 Z " fill="#BE9A61" transform="translate(10,140)"/>
<path d="M0 0 C9.9 0 19.8 0 30 0 C30 3.3 30 6.6 30 10 C26.7 10 23.4 10 20 10 C20 13.3 20 16.6 20 20 C16.7 20 13.4 20 10 20 C10 16.7 10 13.4 10 10 C6.7 10 3.4 10 0 10 C0 6.7 0 3.4 0 0 Z " fill="#A94725" transform="translate(140,130)"/>
<path d="M0 0 C3.3 0 6.6 0 10 0 C10 13.2 10 26.4 10 40 C6.7 40 3.4 40 0 40 C0 26.8 0 13.6 0 0 Z " fill="#9F7E4D" transform="translate(340,120)"/>
<path d="M0 0 C13.2 0 26.4 0 40 0 C40 3.3 40 6.6 40 10 C26.8 10 13.6 10 0 10 C0 6.7 0 3.4 0 0 Z " fill="#C29D62" transform="translate(20,120)"/>
<path d="M0 0 C3.3 0 6.6 0 10 0 C10 13.2 10 26.4 10 40 C6.7 40 3.4 40 0 40 C0 26.8 0 13.6 0 0 Z " fill="#6F502F" transform="translate(370,70)"/>
<path d="M0 0 C9.9 0 19.8 0 30 0 C30 3.3 30 6.6 30 10 C26.7 10 23.4 10 20 10 C20 13.3 20 16.6 20 20 C16.7 20 13.4 20 10 20 C10 16.7 10 13.4 10 10 C6.7 10 3.4 10 0 10 C0 6.7 0 3.4 0 0 Z " fill="#B8945F" transform="translate(30,70)"/>
<path d="M0 0 C15.18 0 30.36 0 46 0 C46 1.65 46 3.3 46 5 C41.71 5 37.42 5 33 5 C33 6.65 33 8.3 33 10 C22.11 10 11.22 10 0 10 C0 6.7 0 3.4 0 0 Z " fill="#C29D62" transform="translate(240,270)"/>
<path d="M0 0 C4.29 0 8.58 0 13 0 C13 4.29 13 8.58 13 13 C10.36 13 7.72 13 5 13 C5 13.99 5 14.98 5 16 C3.35 16 1.7 16 0 16 C0 18.97 0 21.94 0 25 C-3.96 25 -7.92 25 -12 25 C-12 21.04 -12 17.08 -12 13 C-8.04 13 -4.08 13 0 13 C0 8.71 0 4.42 0 0 Z " fill="#383329" transform="translate(335,324)"/>
<path d="M0 0 C4.29 0 8.58 0 13 0 C13 7.92 13 15.84 13 24 C8.71 24 4.42 24 0 24 C0 16.08 0 8.16 0 0 Z " fill="#38342A" transform="translate(310,225)"/>
<path d="M0 0 C9.9 0 19.8 0 30 0 C30 3.3 30 6.6 30 10 C20.1 10 10.2 10 0 10 C0 6.7 0 3.4 0 0 Z " fill="#5D4324" transform="translate(30,320)"/>
<path d="M0 0 C8.25 0 16.5 0 25 0 C25 3.96 25 7.92 25 12 C16.75 12 8.5 12 0 12 C0 8.04 0 4.08 0 0 Z " fill="#C6BCA5" transform="translate(298,312)"/>
<path d="M0 0 C3.96 0 7.92 0 12 0 C12 8.25 12 16.5 12 25 C8.04 25 4.08 25 0 25 C0 16.75 0 8.5 0 0 Z " fill="#38342A" transform="translate(236,312)"/>
<path d="M0 0 C6.6 0 13.2 0 20 0 C20 6.6 20 13.2 20 20 C16.7 20 13.4 20 10 20 C10 16.7 10 13.4 10 10 C6.7 10 3.4 10 0 10 C0 6.7 0 3.4 0 0 Z " fill="#553A1F" transform="translate(60,310)"/>
<path d="M0 0 C9.9 0 19.8 0 30 0 C30 3.3 30 6.6 30 10 C20.1 10 10.2 10 0 10 C0 6.7 0 3.4 0 0 Z " fill="#C29D62" transform="translate(160,300)"/>
<path d="M0 0 C9.9 0 19.8 0 30 0 C30 3.3 30 6.6 30 10 C20.1 10 10.2 10 0 10 C0 6.7 0 3.4 0 0 Z " fill="#AF8F55" transform="translate(30,300)"/>
<path d="M0 0 C8.25 0 16.5 0 25 0 C25 3.96 25 7.92 25 12 C16.75 12 8.5 12 0 12 C0 8.04 0 4.08 0 0 Z " fill="#C6BCA5" transform="translate(323,287)"/>
<path d="M0 0 C9.9 0 19.8 0 30 0 C30 3.3 30 6.6 30 10 C20.1 10 10.2 10 0 10 C0 6.7 0 3.4 0 0 Z " fill="#C29D62" transform="translate(30,270)"/>
<path d="M0 0 C3.96 0 7.92 0 12 0 C12 8.25 12 16.5 12 25 C8.04 25 4.08 25 0 25 C0 16.75 0 8.5 0 0 Z " fill="#DBD0B4" transform="translate(360,262)"/>
<path d="M0 0 C3.3 0 6.6 0 10 0 C10 6.6 10 13.2 10 20 C3.4 20 -3.2 20 -10 20 C-10 16.7 -10 13.4 -10 10 C-6.7 10 -3.4 10 0 10 C0 6.7 0 3.4 0 0 Z " fill="#E5E5E5" transform="translate(160,220)"/>
<path d="M0 0 C3.3 0 6.6 0 10 0 C10 6.6 10 13.2 10 20 C3.4 20 -3.2 20 -10 20 C-10 16.7 -10 13.4 -10 10 C-6.7 10 -3.4 10 0 10 C0 6.7 0 3.4 0 0 Z " fill="#B3ADA5" transform="translate(220,210)"/>
<path d="M0 0 C3.3 0 6.6 0 10 0 C10 3.3 10 6.6 10 10 C13.3 10 16.6 10 20 10 C20 13.3 20 16.6 20 20 C13.4 20 6.8 20 0 20 C0 13.4 0 6.8 0 0 Z " fill="#B8945F" transform="translate(110,210)"/>
<path d="M0 0 C3.3 0 6.6 0 10 0 C10 6.6 10 13.2 10 20 C3.4 20 -3.2 20 -10 20 C-10 16.7 -10 13.4 -10 10 C-6.7 10 -3.4 10 0 10 C0 6.7 0 3.4 0 0 Z " fill="#AFAFAF" transform="translate(280,200)"/>
<path d="M0 0 C3.3 0 6.6 0 10 0 C10 9.9 10 19.8 10 30 C6.7 30 3.4 30 0 30 C0 20.1 0 10.2 0 0 Z " fill="#805E36" transform="translate(70,200)"/>
<path d="M0 0 C9.9 0 19.8 0 30 0 C30 3.3 30 6.6 30 10 C20.1 10 10.2 10 0 10 C0 6.7 0 3.4 0 0 Z " fill="#AF8F55" transform="translate(30,200)"/>
<path d="M0 0 C6.6 0 13.2 0 20 0 C20 3.3 20 6.6 20 10 C16.7 10 13.4 10 10 10 C10 13.3 10 16.6 10 20 C6.7 20 3.4 20 0 20 C0 13.4 0 6.8 0 0 Z " fill="#FFFFFF" transform="translate(160,190)"/>
<path d="M0 0 C9.9 0 19.8 0 30 0 C30 3.3 30 6.6 30 10 C20.1 10 10.2 10 0 10 C0 6.7 0 3.4 0 0 Z " fill="#BD9860" transform="translate(30,190)"/>
<path d="M0 0 C3.3 0 6.6 0 10 0 C10 9.9 10 19.8 10 30 C6.7 30 3.4 30 0 30 C0 20.1 0 10.2 0 0 Z " fill="#84673C" transform="translate(370,180)"/>
<path d="M0 0 C3.3 0 6.6 0 10 0 C10 9.9 10 19.8 10 30 C6.7 30 3.4 30 0 30 C0 20.1 0 10.2 0 0 Z " fill="#AF8F55" transform="translate(360,180)"/>
<path d="M0 0 C3.3 0 6.6 0 10 0 C10 9.9 10 19.8 10 30 C6.7 30 3.4 30 0 30 C0 20.1 0 10.2 0 0 Z " fill="#D4E5F7" transform="translate(110,180)"/>
<path d="M0 0 C3.3 0 6.6 0 10 0 C10 9.9 10 19.8 10 30 C6.7 30 3.4 30 0 30 C0 20.1 0 10.2 0 0 Z " fill="#84673C" transform="translate(20,180)"/>
<path d="M0 0 C9.9 0 19.8 0 30 0 C30 3.3 30 6.6 30 10 C20.1 10 10.2 10 0 10 C0 6.7 0 3.4 0 0 Z " fill="#CFCFCF" transform="translate(230,170)"/>
<path d="M0 0 C6.6 0 13.2 0 20 0 C20 3.3 20 6.6 20 10 C16.7 10 13.4 10 10 10 C10 13.3 10 16.6 10 20 C6.7 20 3.4 20 0 20 C0 13.4 0 6.8 0 0 Z " fill="#B8945F" transform="translate(100,170)"/>
<path d="M0 0 C9.9 0 19.8 0 30 0 C30 3.3 30 6.6 30 10 C20.1 10 10.2 10 0 10 C0 6.7 0 3.4 0 0 Z " fill="#B8945F" transform="translate(30,170)"/>
<path d="M0 0 C9.9 0 19.8 0 30 0 C30 3.3 30 6.6 30 10 C20.1 10 10.2 10 0 10 C0 6.7 0 3.4 0 0 Z " fill="#84673C" transform="translate(30,160)"/>
<path d="M0 0 C9.9 0 19.8 0 30 0 C30 3.3 30 6.6 30 10 C20.1 10 10.2 10 0 10 C0 6.7 0 3.4 0 0 Z " fill="#9F7E4D" transform="translate(270,140)"/>
<path d="M0 0 C9.9 0 19.8 0 30 0 C30 3.3 30 6.6 30 10 C20.1 10 10.2 10 0 10 C0 6.7 0 3.4 0 0 Z " fill="#84673C" transform="translate(160,110)"/>
<path d="M0 0 C3.3 0 6.6 0 10 0 C10 9.9 10 19.8 10 30 C6.7 30 3.4 30 0 30 C0 20.1 0 10.2 0 0 Z " fill="#805E36" transform="translate(320,100)"/>
<path d="M0 0 C3.3 0 6.6 0 10 0 C10 9.9 10 19.8 10 30 C6.7 30 3.4 30 0 30 C0 20.1 0 10.2 0 0 Z " fill="#805E36" transform="translate(70,100)"/>
<path d="M0 0 C9.9 0 19.8 0 30 0 C30 3.3 30 6.6 30 10 C20.1 10 10.2 10 0 10 C0 6.7 0 3.4 0 0 Z " fill="#9F7E4D" transform="translate(270,90)"/>
<path d="M0 0 C9.9 0 19.8 0 30 0 C30 3.3 30 6.6 30 10 C20.1 10 10.2 10 0 10 C0 6.7 0 3.4 0 0 Z " fill="#84673C" transform="translate(340,60)"/>
<path d="M0 0 C3.3 0 6.6 0 10 0 C10 9.9 10 19.8 10 30 C6.7 30 3.4 30 0 30 C0 20.1 0 10.2 0 0 Z " fill="#6D502B" transform="translate(60,50)"/>
<path d="M0 0 C9.9 0 19.8 0 30 0 C30 2.97 30 5.94 30 9 C27.18175808 10.40912096 24.82748718 10.11183553 21.6796875 10.09765625 C20.42285156 10.09443359 19.16601562 10.09121094 17.87109375 10.08789062 C16.55238281 10.07951172 15.23367188 10.07113281 13.875 10.0625 C12.53515789 10.05748489 11.195314 10.05292201 9.85546875 10.04882812 C6.57026794 10.03701086 3.28515603 10.02053617 0 10 C0 6.7 0 3.4 0 0 Z " fill="#9F7E4D" transform="translate(270,240)"/>
<path d="M0 0 C3.3 0 6.6 0 10 0 C10 3.96 10 7.92 10 12 C7.69 12 5.38 12 3 12 C3 16.29 3 20.58 3 25 C-1.29 25 -5.58 25 -10 25 C-10 23.35 -10 21.7 -10 20 C-6.7 20 -3.4 20 0 20 C0 13.4 0 6.8 0 0 Z " fill="#805E36" transform="translate(320,200)"/>
<path d="M0 0 C6.6 0 13.2 0 20 0 C20 3.3 20 6.6 20 10 C13.4 10 6.8 10 0 10 C0 6.7 0 3.4 0 0 Z " fill="#C29D62" transform="translate(210,300)"/>
<path d="M0 0 C6.6 0 13.2 0 20 0 C20 3.3 20 6.6 20 10 C13.4 10 6.8 10 0 10 C0 6.7 0 3.4 0 0 Z " fill="#9F7E4D" transform="translate(150,290)"/>
<path d="M0 0 C3.3 0 6.6 0 10 0 C10 6.6 10 13.2 10 20 C6.7 20 3.4 20 0 20 C0 13.4 0 6.8 0 0 Z " fill="#84673C" transform="translate(20,270)"/>
<path d="M0 0 C6.6 0 13.2 0 20 0 C20 3.3 20 6.6 20 10 C13.4 10 6.8 10 0 10 C0 6.7 0 3.4 0 0 Z " fill="#645A4E" transform="translate(230,250)"/>
<path d="M0 0 C6.6 0 13.2 0 20 0 C20 3.3 20 6.6 20 10 C13.4 10 6.8 10 0 10 C0 6.7 0 3.4 0 0 Z " fill="#B8945F" transform="translate(100,250)"/>
<path d="M0 0 C6.6 0 13.2 0 20 0 C20 3.3 20 6.6 20 10 C13.4 10 6.8 10 0 10 C0 6.7 0 3.4 0 0 Z " fill="#968674" transform="translate(230,240)"/>
<path d="M0 0 C3.3 0 6.6 0 10 0 C10 6.6 10 13.2 10 20 C6.7 20 3.4 20 0 20 C0 13.4 0 6.8 0 0 Z " fill="#E9E2D9" transform="translate(220,230)"/>
<path d="M0 0 C6.6 0 13.2 0 20 0 C20 3.3 20 6.6 20 10 C13.4 10 6.8 10 0 10 C0 6.7 0 3.4 0 0 Z " fill="#5D8FC2" transform="translate(130,230)"/>
<path d="M0 0 C6.6 0 13.2 0 20 0 C20 3.3 20 6.6 20 10 C13.4 10 6.8 10 0 10 C0 6.7 0 3.4 0 0 Z " fill="#B8945F" transform="translate(40,220)"/>
<path d="M0 0 C6.6 0 13.2 0 20 0 C20 3.3 20 6.6 20 10 C13.4 10 6.8 10 0 10 C0 6.7 0 3.4 0 0 Z " fill="#6F502F" transform="translate(360,210)"/>
<path d="M0 0 C6.6 0 13.2 0 20 0 C20 3.3 20 6.6 20 10 C13.4 10 6.8 10 0 10 C0 6.7 0 3.4 0 0 Z " fill="#84673C" transform="translate(290,210)"/>
<path d="M0 0 C6.6 0 13.2 0 20 0 C20 3.3 20 6.6 20 10 C13.4 10 6.8 10 0 10 C0 6.7 0 3.4 0 0 Z " fill="#84673C" transform="translate(90,210)"/>
<path d="M0 0 C6.6 0 13.2 0 20 0 C20 3.3 20 6.6 20 10 C13.4 10 6.8 10 0 10 C0 6.7 0 3.4 0 0 Z " fill="#84673C" transform="translate(40,210)"/>
<path d="M0 0 C6.6 0 13.2 0 20 0 C20 3.3 20 6.6 20 10 C13.4 10 6.8 10 0 10 C0 6.7 0 3.4 0 0 Z " fill="#6F502F" transform="translate(20,210)"/>
<path d="M0 0 C6.6 0 13.2 0 20 0 C20 3.3 20 6.6 20 10 C13.4 10 6.8 10 0 10 C0 6.7 0 3.4 0 0 Z " fill="#AFAFAF" transform="translate(250,200)"/>
<path d="M0 0 C3.3 0 6.6 0 10 0 C10 6.6 10 13.2 10 20 C6.7 20 3.4 20 0 20 C0 13.4 0 6.8 0 0 Z " fill="#CFCFCF" transform="translate(170,200)"/>
<path d="M0 0 C6.6 0 13.2 0 20 0 C20 3.3 20 6.6 20 10 C13.4 10 6.8 10 0 10 C0 6.7 0 3.4 0 0 Z " fill="#9F7E4D" transform="translate(280,190)"/>
<path d="M0 0 C6.6 0 13.2 0 20 0 C20 3.3 20 6.6 20 10 C13.4 10 6.8 10 0 10 C0 6.7 0 3.4 0 0 Z " fill="#E5E5E5" transform="translate(240,180)"/>
<path d="M0 0 C3.3 0 6.6 0 10 0 C10 6.6 10 13.2 10 20 C6.7 20 3.4 20 0 20 C0 13.4 0 6.8 0 0 Z " fill="#B3CFEC" transform="translate(130,180)"/>
<path d="M0 0 C3.3 0 6.6 0 10 0 C10 6.6 10 13.2 10 20 C6.7 20 3.4 20 0 20 C0 13.4 0 6.8 0 0 Z " fill="#FFFFFF" transform="translate(120,180)"/>
<path d="M0 0 C6.6 0 13.2 0 20 0 C20 3.3 20 6.6 20 10 C13.4 10 6.8 10 0 10 C0 6.7 0 3.4 0 0 Z " fill="#AF8F55" transform="translate(180,170)"/>
<path d="M0 0 C6.6 0 13.2 0 20 0 C20 3.3 20 6.6 20 10 C13.4 10 6.8 10 0 10 C0 6.7 0 3.4 0 0 Z " fill="#AF8F55" transform="translate(360,150)"/>
<path d="M0 0 C6.6 0 13.2 0 20 0 C20 3.3 20 6.6 20 10 C13.4 10 6.8 10 0 10 C0 6.7 0 3.4 0 0 Z " fill="#AF8F55" transform="translate(180,150)"/>
<path d="M0 0 C3.3 0 6.6 0 10 0 C10 6.6 10 13.2 10 20 C6.7 20 3.4 20 0 20 C0 13.4 0 6.8 0 0 Z " fill="#84673C" transform="translate(10,150)"/>
<path d="M0 0 C6.6 0 13.2 0 20 0 C20 3.3 20 6.6 20 10 C13.4 10 6.8 10 0 10 C0 6.7 0 3.4 0 0 Z " fill="#B8945F" transform="translate(240,140)"/>
<path d="M0 0 C3.3 0 6.6 0 10 0 C10 6.6 10 13.2 10 20 C6.7 20 3.4 20 0 20 C0 13.4 0 6.8 0 0 Z " fill="#5D8FC2" transform="translate(160,140)"/>
<path d="M0 0 C3.3 0 6.6 0 10 0 C10 6.6 10 13.2 10 20 C6.7 20 3.4 20 0 20 C0 13.4 0 6.8 0 0 Z " fill="#B3CFEC" transform="translate(140,140)"/>
<path d="M0 0 C3.3 0 6.6 0 10 0 C10 6.6 10 13.2 10 20 C6.7 20 3.4 20 0 20 C0 13.4 0 6.8 0 0 Z " fill="#B3CFEC" transform="translate(130,120)"/>
<path d="M0 0 C3.3 0 6.6 0 10 0 C10 6.6 10 13.2 10 20 C6.7 20 3.4 20 0 20 C0 13.4 0 6.8 0 0 Z " fill="#84673C" transform="translate(380,120)"/>
<path d="M0 0 C6.6 0 13.2 0 20 0 C20 3.3 20 6.6 20 10 C13.4 10 6.8 10 0 10 C0 6.7 0 3.4 0 0 Z " fill="#B8945F" transform="translate(230,120)"/>
<path d="M0 0 C3.3 0 6.6 0 10 0 C10 6.6 10 13.2 10 20 C6.7 20 3.4 20 0 20 C0 13.4 0 6.8 0 0 Z " fill="#B3CFEC" transform="translate(170,120)"/>
<path d="M0 0 C6.6 0 13.2 0 20 0 C20 3.3 20 6.6 20 10 C13.4 10 6.8 10 0 10 C0 6.7 0 3.4 0 0 Z " fill="#B8945F" transform="translate(100,120)"/>
<path d="M0 0 C3.3 0 6.6 0 10 0 C10 6.6 10 13.2 10 20 C6.7 20 3.4 20 0 20 C0 13.4 0 6.8 0 0 Z " fill="#84673C" transform="translate(10,120)"/>
<path d="M0 0 C6.6 0 13.2 0 20 0 C20 3.3 20 6.6 20 10 C13.4 10 6.8 10 0 10 C0 6.7 0 3.4 0 0 Z " fill="#846C4B" transform="translate(190,110)"/>
<path d="M0 0 C6.6 0 13.2 0 20 0 C20 3.3 20 6.6 20 10 C13.4 10 6.8 10 0 10 C0 6.7 0 3.4 0 0 Z " fill="#D46D49" transform="translate(140,110)"/>
<path d="M0 0 C6.6 0 13.2 0 20 0 C20 3.3 20 6.6 20 10 C13.4 10 6.8 10 0 10 C0 6.7 0 3.4 0 0 Z " fill="#B8945F" transform="translate(350,100)"/>
<path d="M0 0 C6.6 0 13.2 0 20 0 C20 3.3 20 6.6 20 10 C13.4 10 6.8 10 0 10 C0 6.7 0 3.4 0 0 Z " fill="#AF8F55" transform="translate(180,100)"/>
<path d="M0 0 C6.6 0 13.2 0 20 0 C20 3.3 20 6.6 20 10 C13.4 10 6.8 10 0 10 C0 6.7 0 3.4 0 0 Z " fill="#C29D62" transform="translate(350,90)"/>
<path d="M0 0 C6.6 0 13.2 0 20 0 C20 3.3 20 6.6 20 10 C13.4 10 6.8 10 0 10 C0 6.7 0 3.4 0 0 Z " fill="#B8945F" transform="translate(240,90)"/>
<path d="M0 0 C6.6 0 13.2 0 20 0 C20 3.3 20 6.6 20 10 C13.4 10 6.8 10 0 10 C0 6.7 0 3.4 0 0 Z " fill="#9F7E4D" transform="translate(140,90)"/>
<path d="M0 0 C3.3 0 6.6 0 10 0 C10 6.6 10 13.2 10 20 C6.7 20 3.4 20 0 20 C0 13.4 0 6.8 0 0 Z " fill="#84673C" transform="translate(370,70)"/>
<path d="M0 0 C6.6 0 13.2 0 20 0 C20 3.3 20 6.6 20 10 C13.4 10 6.8 10 0 10 C0 6.7 0 3.4 0 0 Z " fill="#C29D62" transform="translate(350,70)"/>
<path d="M0 0 C6.6 0 13.2 0 20 0 C20 3.3 20 6.6 20 10 C13.4 10 6.8 10 0 10 C0 6.7 0 3.4 0 0 Z " fill="#B8945F" transform="translate(230,70)"/>
<path d="M0 0 C6.6 0 13.2 0 20 0 C20 3.3 20 6.6 20 10 C13.4 10 6.8 10 0 10 C0 6.7 0 3.4 0 0 Z " fill="#B8945F" transform="translate(100,70)"/>
<path d="M0 0 C3.3 0 6.6 0 10 0 C10 6.6 10 13.2 10 20 C6.7 20 3.4 20 0 20 C0 13.4 0 6.8 0 0 Z " fill="#9F7E4D" transform="translate(320,50)"/>
<path d="M0 0 C3.3 0 6.6 0 10 0 C10 6.6 10 13.2 10 20 C6.7 20 3.4 20 0 20 C0 13.4 0 6.8 0 0 Z " fill="#9F7E4D" transform="translate(70,50)"/>
<path d="M0 0 C3.96 0 7.92 0 12 0 C12 3.63 12 7.26 12 11 C14.64 11 17.28 11 20 11 C20 11.66 20 12.32 20 13 C13.4 13 6.8 13 0 13 C0 8.71 0 4.42 0 0 Z " fill="#3D362A" transform="translate(360,249)"/>
<path d="M0 0 C3.3 0 6.6 0 10 0 C10 5.61 10 11.22 10 17 C6.7 17 3.4 17 0 17 C0 11.39 0 5.78 0 0 Z " fill="#C29D62" transform="translate(350,220)"/>
<path d="M0 0 C4.29 0 8.58 0 13 0 C13 4.29 13 8.58 13 13 C8.71 13 4.42 13 0 13 C0 8.71 0 4.42 0 0 Z " fill="#38342A" transform="translate(273,361)"/>
<path d="M0 0 C4.29 0 8.58 0 13 0 C13 4.29 13 8.58 13 13 C8.71 13 4.42 13 0 13 C0 8.71 0 4.42 0 0 Z " fill="#AEA694" transform="translate(260,324)"/>
<path d="M0 0 C4.29 0 8.58 0 13 0 C13 4.29 13 8.58 13 13 C8.71 13 4.42 13 0 13 C0 8.71 0 4.42 0 0 Z " fill="#38342A" transform="translate(335,262)"/>
<path d="M0 0 C6.6 0 13.2 0 20 0 C20 2.64 20 5.28 20 8 C13.4 8 6.8 8 0 8 C0 5.36 0 2.72 0 0 Z " fill="#5D4324" transform="translate(360,312)"/>
<path d="M0 0 C3.96 0 7.92 0 12 0 C12 4.29 12 8.58 12 13 C8.04 13 4.08 13 0 13 C0 8.71 0 4.42 0 0 Z " fill="#9A927E" transform="translate(286,361)"/>
<path d="M0 0 C4.29 0 8.58 0 13 0 C13 3.96 13 7.92 13 12 C8.71 12 4.42 12 0 12 C0 8.04 0 4.08 0 0 Z " fill="#38342A" transform="translate(260,349)"/>
<path d="M0 0 C4.29 0 8.58 0 13 0 C13 3.96 13 7.92 13 12 C8.71 12 4.42 12 0 12 C0 8.04 0 4.08 0 0 Z " fill="#AEA694" transform="translate(273,337)"/>
<path d="M0 0 C3.96 0 7.92 0 12 0 C12 4.29 12 8.58 12 13 C8.04 13 4.08 13 0 13 C0 8.71 0 4.42 0 0 Z " fill="#C6BCA5" transform="translate(286,299)"/>
<path d="M0 0 C3.96 0 7.92 0 12 0 C12 4.29 12 8.58 12 13 C8.04 13 4.08 13 0 13 C0 8.71 0 4.42 0 0 Z " fill="#38342A" transform="translate(248,299)"/>
<path d="M0 0 C4.29 0 8.58 0 13 0 C13 3.96 13 7.92 13 12 C8.71 12 4.42 12 0 12 C0 8.04 0 4.08 0 0 Z " fill="#807A6D" transform="translate(372,287)"/>
<path d="M0 0 C4.29 0 8.58 0 13 0 C13 3.96 13 7.92 13 12 C8.71 12 4.42 12 0 12 C0 8.04 0 4.08 0 0 Z " fill="#38342A" transform="translate(260,287)"/>
<path d="M0 0 C4.29 0 8.58 0 13 0 C13 3.96 13 7.92 13 12 C8.71 12 4.42 12 0 12 C0 8.04 0 4.08 0 0 Z " fill="#C6BCA5" transform="translate(310,275)"/>
<path d="M0 0 C4.29 0 8.58 0 13 0 C13 3.96 13 7.92 13 12 C8.71 12 4.42 12 0 12 C0 8.04 0 4.08 0 0 Z " fill="#38342A" transform="translate(273,275)"/>
<path d="M0 0 C3.96 0 7.92 0 12 0 C12 4.29 12 8.58 12 13 C8.04 13 4.08 13 0 13 C0 8.71 0 4.42 0 0 Z " fill="#C6BCA5" transform="translate(298,262)"/>
<path d="M0 0 C3.96 0 7.92 0 12 0 C12 4.29 12 8.58 12 13 C8.04 13 4.08 13 0 13 C0 8.71 0 4.42 0 0 Z " fill="#38342A" transform="translate(286,262)"/>
<path d="M0 0 C3.96 0 7.92 0 12 0 C12 4.29 12 8.58 12 13 C8.04 13 4.08 13 0 13 C0 8.71 0 4.42 0 0 Z " fill="#DBD0B4" transform="translate(348,249)"/>
<path d="M0 0 C3.96 0 7.92 0 12 0 C12 4.29 12 8.58 12 13 C8.04 13 4.08 13 0 13 C0 8.71 0 4.42 0 0 Z " fill="#38342A" transform="translate(323,249)"/>
<path d="M0 0 C3.96 0 7.92 0 12 0 C12 4.29 12 8.58 12 13 C8.04 13 4.08 13 0 13 C0 8.71 0 4.42 0 0 Z " fill="#38342A" transform="translate(298,249)"/>
<path d="M0 0 C4.29 0 8.58 0 13 0 C13 3.96 13 7.92 13 12 C8.71 12 4.42 12 0 12 C0 8.04 0 4.08 0 0 Z " fill="#DBD0B4" transform="translate(335,237)"/>
<path d="M0 0 C4.29 0 8.58 0 13 0 C13 3.96 13 7.92 13 12 C8.71 12 4.42 12 0 12 C0 8.04 0 4.08 0 0 Z " fill="#38342A" transform="translate(335,225)"/>
<path d="M0 0 C3.96 0 7.92 0 12 0 C12 4.29 12 8.58 12 13 C8.04 13 4.08 13 0 13 C0 8.71 0 4.42 0 0 Z " fill="#38342A" transform="translate(323,212)"/>
<path d="M0 0 C3.96 0 7.92 0 12 0 C12 3.96 12 7.92 12 12 C8.04 12 4.08 12 0 12 C0 8.04 0 4.08 0 0 Z " fill="#AEA694" transform="translate(286,349)"/>
<path d="M0 0 C3.96 0 7.92 0 12 0 C12 3.96 12 7.92 12 12 C8.04 12 4.08 12 0 12 C0 8.04 0 4.08 0 0 Z " fill="#38342A" transform="translate(248,337)"/>
<path d="M0 0 C3.96 0 7.92 0 12 0 C12 3.96 12 7.92 12 12 C8.04 12 4.08 12 0 12 C0 8.04 0 4.08 0 0 Z " fill="#38342A" transform="translate(348,312)"/>
<path d="M0 0 C3.96 0 7.92 0 12 0 C12 3.96 12 7.92 12 12 C8.04 12 4.08 12 0 12 C0 8.04 0 4.08 0 0 Z " fill="#AEA694" transform="translate(248,312)"/>
<path d="M0 0 C3.96 0 7.92 0 12 0 C12 3.96 12 7.92 12 12 C8.04 12 4.08 12 0 12 C0 8.04 0 4.08 0 0 Z " fill="#BCB29C" transform="translate(360,275)"/>
<path d="M0 0 C3.96 0 7.92 0 12 0 C12 3.96 12 7.92 12 12 C8.04 12 4.08 12 0 12 C0 8.04 0 4.08 0 0 Z " fill="#38342A" transform="translate(348,275)"/>
<path d="M0 0 C3.96 0 7.92 0 12 0 C12 3.96 12 7.92 12 12 C8.04 12 4.08 12 0 12 C0 8.04 0 4.08 0 0 Z " fill="#38342A" transform="translate(348,237)"/>
<path d="M0 0 C3.96 0 7.92 0 12 0 C12 3.96 12 7.92 12 12 C8.04 12 4.08 12 0 12 C0 8.04 0 4.08 0 0 Z " fill="#DBD0B4" transform="translate(323,225)"/>
<path d="M0 0 C3.3 0 6.6 0 10 0 C10 3.3 10 6.6 10 10 C6.7 10 3.4 10 0 10 C0 6.7 0 3.4 0 0 Z " fill="#B8945F" transform="translate(180,300)"/>
<path d="M0 0 C3.3 0 6.6 0 10 0 C10 3.3 10 6.6 10 10 C6.7 10 3.4 10 0 10 C0 6.7 0 3.4 0 0 Z " fill="#AF8F55" transform="translate(100,300)"/>
<path d="M0 0 C3.3 0 6.6 0 10 0 C10 3.3 10 6.6 10 10 C6.7 10 3.4 10 0 10 C0 6.7 0 3.4 0 0 Z " fill="#84673C" transform="translate(20,300)"/>
<path d="M0 0 C3.3 0 6.6 0 10 0 C10 3.3 10 6.6 10 10 C6.7 10 3.4 10 0 10 C0 6.7 0 3.4 0 0 Z " fill="#AF8F55" transform="translate(20,290)"/>
<path d="M0 0 C3.3 0 6.6 0 10 0 C10 3.3 10 6.6 10 10 C6.7 10 3.4 10 0 10 C0 6.7 0 3.4 0 0 Z " fill="#B8945F" transform="translate(220,270)"/>
<path d="M0 0 C3.3 0 6.6 0 10 0 C10 3.3 10 6.6 10 10 C6.7 10 3.4 10 0 10 C0 6.7 0 3.4 0 0 Z " fill="#C29D62" transform="translate(100,270)"/>
<path d="M0 0 C3.3 0 6.6 0 10 0 C10 3.3 10 6.6 10 10 C6.7 10 3.4 10 0 10 C0 6.7 0 3.4 0 0 Z " fill="#74542F" transform="translate(60,270)"/>
<path d="M0 0 C3.3 0 6.6 0 10 0 C10 3.3 10 6.6 10 10 C6.7 10 3.4 10 0 10 C0 6.7 0 3.4 0 0 Z " fill="#B8945F" transform="translate(30,270)"/>
<path d="M0 0 C3.3 0 6.6 0 10 0 C10 3.3 10 6.6 10 10 C6.7 10 3.4 10 0 10 C0 6.7 0 3.4 0 0 Z " fill="#846C4B" transform="translate(120,260)"/>
<path d="M0 0 C3.3 0 6.6 0 10 0 C10 3.3 10 6.6 10 10 C6.7 10 3.4 10 0 10 C0 6.7 0 3.4 0 0 Z " fill="#5D4324" transform="translate(60,260)"/>
<path d="M0 0 C3.3 0 6.6 0 10 0 C10 3.3 10 6.6 10 10 C6.7 10 3.4 10 0 10 C0 6.7 0 3.4 0 0 Z " fill="#968674" transform="translate(220,250)"/>
<path d="M0 0 C3.3 0 6.6 0 10 0 C10 3.3 10 6.6 10 10 C6.7 10 3.4 10 0 10 C0 6.7 0 3.4 0 0 Z " fill="#B7AB9B" transform="translate(210,250)"/>
<path d="M0 0 C3.3 0 6.6 0 10 0 C10 3.3 10 6.6 10 10 C6.7 10 3.4 10 0 10 C0 6.7 0 3.4 0 0 Z " fill="#A4A4A4" transform="translate(200,250)"/>
<path d="M0 0 C3.3 0 6.6 0 10 0 C10 3.3 10 6.6 10 10 C6.7 10 3.4 10 0 10 C0 6.7 0 3.4 0 0 Z " fill="#AF8F55" transform="translate(100,250)"/>
<path d="M0 0 C3.3 0 6.6 0 10 0 C10 3.3 10 6.6 10 10 C6.7 10 3.4 10 0 10 C0 6.7 0 3.4 0 0 Z " fill="#6F502F" transform="translate(30,250)"/>
<path d="M0 0 C3.3 0 6.6 0 10 0 C10 3.3 10 6.6 10 10 C6.7 10 3.4 10 0 10 C0 6.7 0 3.4 0 0 Z " fill="#645A4E" transform="translate(250,240)"/>
<path d="M0 0 C3.3 0 6.6 0 10 0 C10 3.3 10 6.6 10 10 C6.7 10 3.4 10 0 10 C0 6.7 0 3.4 0 0 Z " fill="#A4A4A4" transform="translate(230,240)"/>
<path d="M0 0 C3.3 0 6.6 0 10 0 C10 3.3 10 6.6 10 10 C6.7 10 3.4 10 0 10 C0 6.7 0 3.4 0 0 Z " fill="#CFC6BB" transform="translate(210,240)"/>
<path d="M0 0 C3.3 0 6.6 0 10 0 C10 3.3 10 6.6 10 10 C6.7 10 3.4 10 0 10 C0 6.7 0 3.4 0 0 Z " fill="#DADADA" transform="translate(170,240)"/>
<path d="M0 0 C3.3 0 6.6 0 10 0 C10 3.3 10 6.6 10 10 C6.7 10 3.4 10 0 10 C0 6.7 0 3.4 0 0 Z " fill="#9F7E4D" transform="translate(140,240)"/>
<path d="M0 0 C3.3 0 6.6 0 10 0 C10 3.3 10 6.6 10 10 C6.7 10 3.4 10 0 10 C0 6.7 0 3.4 0 0 Z " fill="#645A4E" transform="translate(260,230)"/>
<path d="M0 0 C3.3 0 6.6 0 10 0 C10 3.3 10 6.6 10 10 C6.7 10 3.4 10 0 10 C0 6.7 0 3.4 0 0 Z " fill="#E9E2D9" transform="translate(240,230)"/>
<path d="M0 0 C3.3 0 6.6 0 10 0 C10 3.3 10 6.6 10 10 C6.7 10 3.4 10 0 10 C0 6.7 0 3.4 0 0 Z " fill="#CFC6BB" transform="translate(230,230)"/>
<path d="M0 0 C3.3 0 6.6 0 10 0 C10 3.3 10 6.6 10 10 C6.7 10 3.4 10 0 10 C0 6.7 0 3.4 0 0 Z " fill="#AFAFAF" transform="translate(200,230)"/>
<path d="M0 0 C3.3 0 6.6 0 10 0 C10 3.3 10 6.6 10 10 C6.7 10 3.4 10 0 10 C0 6.7 0 3.4 0 0 Z " fill="#DADADA" transform="translate(190,230)"/>
<path d="M0 0 C3.3 0 6.6 0 10 0 C10 3.3 10 6.6 10 10 C6.7 10 3.4 10 0 10 C0 6.7 0 3.4 0 0 Z " fill="#CFCFCF" transform="translate(150,230)"/>
<path d="M0 0 C3.3 0 6.6 0 10 0 C10 3.3 10 6.6 10 10 C6.7 10 3.4 10 0 10 C0 6.7 0 3.4 0 0 Z " fill="#9F7E4D" transform="translate(50,230)"/>
<path d="M0 0 C3.3 0 6.6 0 10 0 C10 3.3 10 6.6 10 10 C6.7 10 3.4 10 0 10 C0 6.7 0 3.4 0 0 Z " fill="#B8945F" transform="translate(300,220)"/>
<path d="M0 0 C3.3 0 6.6 0 10 0 C10 3.3 10 6.6 10 10 C6.7 10 3.4 10 0 10 C0 6.7 0 3.4 0 0 Z " fill="#645A4E" transform="translate(270,220)"/>
<path d="M0 0 C3.3 0 6.6 0 10 0 C10 3.3 10 6.6 10 10 C6.7 10 3.4 10 0 10 C0 6.7 0 3.4 0 0 Z " fill="#A4A4A4" transform="translate(250,220)"/>
<path d="M0 0 C3.3 0 6.6 0 10 0 C10 3.3 10 6.6 10 10 C6.7 10 3.4 10 0 10 C0 6.7 0 3.4 0 0 Z " fill="#E9E2D9" transform="translate(230,220)"/>
<path d="M0 0 C3.3 0 6.6 0 10 0 C10 3.3 10 6.6 10 10 C6.7 10 3.4 10 0 10 C0 6.7 0 3.4 0 0 Z " fill="#CFCFCF" transform="translate(160,220)"/>
<path d="M0 0 C3.3 0 6.6 0 10 0 C10 3.3 10 6.6 10 10 C6.7 10 3.4 10 0 10 C0 6.7 0 3.4 0 0 Z " fill="#5D8FC2" transform="translate(120,220)"/>
<path d="M0 0 C3.3 0 6.6 0 10 0 C10 3.3 10 6.6 10 10 C6.7 10 3.4 10 0 10 C0 6.7 0 3.4 0 0 Z " fill="#C29D62" transform="translate(100,220)"/>
<path d="M0 0 C3.3 0 6.6 0 10 0 C10 3.3 10 6.6 10 10 C6.7 10 3.4 10 0 10 C0 6.7 0 3.4 0 0 Z " fill="#AF8F55" transform="translate(40,220)"/>
<path d="M0 0 C3.3 0 6.6 0 10 0 C10 3.3 10 6.6 10 10 C6.7 10 3.4 10 0 10 C0 6.7 0 3.4 0 0 Z " fill="#5D4324" transform="translate(310,210)"/>
<path d="M0 0 C3.3 0 6.6 0 10 0 C10 3.3 10 6.6 10 10 C6.7 10 3.4 10 0 10 C0 6.7 0 3.4 0 0 Z " fill="#968674" transform="translate(240,210)"/>
<path d="M0 0 C3.3 0 6.6 0 10 0 C10 3.3 10 6.6 10 10 C6.7 10 3.4 10 0 10 C0 6.7 0 3.4 0 0 Z " fill="#AFAFAF" transform="translate(220,210)"/>
<path d="M0 0 C3.3 0 6.6 0 10 0 C10 3.3 10 6.6 10 10 C6.7 10 3.4 10 0 10 C0 6.7 0 3.4 0 0 Z " fill="#5D8FC2" transform="translate(110,210)"/>
<path d="M0 0 C3.3 0 6.6 0 10 0 C10 3.3 10 6.6 10 10 C6.7 10 3.4 10 0 10 C0 6.7 0 3.4 0 0 Z " fill="#5D4324" transform="translate(60,210)"/>
<path d="M0 0 C3.3 0 6.6 0 10 0 C10 3.3 10 6.6 10 10 C6.7 10 3.4 10 0 10 C0 6.7 0 3.4 0 0 Z " fill="#6E4F2D" transform="translate(310,200)"/>
<path d="M0 0 C3.3 0 6.6 0 10 0 C10 3.3 10 6.6 10 10 C6.7 10 3.4 10 0 10 C0 6.7 0 3.4 0 0 Z " fill="#DADADA" transform="translate(270,200)"/>
<path d="M0 0 C3.3 0 6.6 0 10 0 C10 3.3 10 6.6 10 10 C6.7 10 3.4 10 0 10 C0 6.7 0 3.4 0 0 Z " fill="#E5E5E5" transform="translate(210,200)"/>
<path d="M0 0 C3.3 0 6.6 0 10 0 C10 3.3 10 6.6 10 10 C6.7 10 3.4 10 0 10 C0 6.7 0 3.4 0 0 Z " fill="#DADADA" transform="translate(180,200)"/>
<path d="M0 0 C3.3 0 6.6 0 10 0 C10 3.3 10 6.6 10 10 C6.7 10 3.4 10 0 10 C0 6.7 0 3.4 0 0 Z " fill="#B3CFEC" transform="translate(110,200)"/>
<path d="M0 0 C3.3 0 6.6 0 10 0 C10 3.3 10 6.6 10 10 C6.7 10 3.4 10 0 10 C0 6.7 0 3.4 0 0 Z " fill="#AF8F55" transform="translate(100,200)"/>
<path d="M0 0 C3.3 0 6.6 0 10 0 C10 3.3 10 6.6 10 10 C6.7 10 3.4 10 0 10 C0 6.7 0 3.4 0 0 Z " fill="#9F7E4D" transform="translate(30,200)"/>
<path d="M0 0 C3.3 0 6.6 0 10 0 C10 3.3 10 6.6 10 10 C6.7 10 3.4 10 0 10 C0 6.7 0 3.4 0 0 Z " fill="#B8945F" transform="translate(300,190)"/>
<path d="M0 0 C3.3 0 6.6 0 10 0 C10 3.3 10 6.6 10 10 C6.7 10 3.4 10 0 10 C0 6.7 0 3.4 0 0 Z " fill="#CFCFCF" transform="translate(270,190)"/>
<path d="M0 0 C3.3 0 6.6 0 10 0 C10 3.3 10 6.6 10 10 C6.7 10 3.4 10 0 10 C0 6.7 0 3.4 0 0 Z " fill="#CFCFCF" transform="translate(180,190)"/>
<path d="M0 0 C3.3 0 6.6 0 10 0 C10 3.3 10 6.6 10 10 C6.7 10 3.4 10 0 10 C0 6.7 0 3.4 0 0 Z " fill="#B8945F" transform="translate(30,190)"/>
<path d="M0 0 C3.3 0 6.6 0 10 0 C10 3.3 10 6.6 10 10 C6.7 10 3.4 10 0 10 C0 6.7 0 3.4 0 0 Z " fill="#CFCFCF" transform="translate(260,180)"/>
<path d="M0 0 C3.3 0 6.6 0 10 0 C10 3.3 10 6.6 10 10 C6.7 10 3.4 10 0 10 C0 6.7 0 3.4 0 0 Z " fill="#F4F4F4" transform="translate(240,180)"/>
<path d="M0 0 C3.3 0 6.6 0 10 0 C10 3.3 10 6.6 10 10 C6.7 10 3.4 10 0 10 C0 6.7 0 3.4 0 0 Z " fill="#AF8F55" transform="translate(100,180)"/>
<path d="M0 0 C3.3 0 6.6 0 10 0 C10 3.3 10 6.6 10 10 C6.7 10 3.4 10 0 10 C0 6.7 0 3.4 0 0 Z " fill="#9F7E4D" transform="translate(50,180)"/>
<path d="M0 0 C3.3 0 6.6 0 10 0 C10 3.3 10 6.6 10 10 C6.7 10 3.4 10 0 10 C0 6.7 0 3.4 0 0 Z " fill="#9F7E4D" transform="translate(30,180)"/>
<path d="M0 0 C3.3 0 6.6 0 10 0 C10 3.3 10 6.6 10 10 C6.7 10 3.4 10 0 10 C0 6.7 0 3.4 0 0 Z " fill="#84673C" transform="translate(360,170)"/>
<path d="M0 0 C3.3 0 6.6 0 10 0 C10 3.3 10 6.6 10 10 C6.7 10 3.4 10 0 10 C0 6.7 0 3.4 0 0 Z " fill="#C29D62" transform="translate(350,170)"/>
<path d="M0 0 C3.3 0 6.6 0 10 0 C10 3.3 10 6.6 10 10 C6.7 10 3.4 10 0 10 C0 6.7 0 3.4 0 0 Z " fill="#74542F" transform="translate(310,170)"/>
<path d="M0 0 C3.3 0 6.6 0 10 0 C10 3.3 10 6.6 10 10 C6.7 10 3.4 10 0 10 C0 6.7 0 3.4 0 0 Z " fill="#B8945F" transform="translate(300,170)"/>
<path d="M0 0 C3.3 0 6.6 0 10 0 C10 3.3 10 6.6 10 10 C6.7 10 3.4 10 0 10 C0 6.7 0 3.4 0 0 Z " fill="#5D8FC2" transform="translate(180,170)"/>
<path d="M0 0 C3.3 0 6.6 0 10 0 C10 3.3 10 6.6 10 10 C6.7 10 3.4 10 0 10 C0 6.7 0 3.4 0 0 Z " fill="#B3CFEC" transform="translate(140,170)"/>
<path d="M0 0 C3.3 0 6.6 0 10 0 C10 3.3 10 6.6 10 10 C6.7 10 3.4 10 0 10 C0 6.7 0 3.4 0 0 Z " fill="#D4E5F7" transform="translate(120,170)"/>
<path d="M0 0 C3.3 0 6.6 0 10 0 C10 3.3 10 6.6 10 10 C6.7 10 3.4 10 0 10 C0 6.7 0 3.4 0 0 Z " fill="#C29D62" transform="translate(100,170)"/>
<path d="M0 0 C3.3 0 6.6 0 10 0 C10 3.3 10 6.6 10 10 C6.7 10 3.4 10 0 10 C0 6.7 0 3.4 0 0 Z " fill="#74542F" transform="translate(60,170)"/>
<path d="M0 0 C3.3 0 6.6 0 10 0 C10 3.3 10 6.6 10 10 C6.7 10 3.4 10 0 10 C0 6.7 0 3.4 0 0 Z " fill="#C29D62" transform="translate(50,170)"/>
<path d="M0 0 C3.3 0 6.6 0 10 0 C10 3.3 10 6.6 10 10 C6.7 10 3.4 10 0 10 C0 6.7 0 3.4 0 0 Z " fill="#AF8F55" transform="translate(30,170)"/>
<path d="M0 0 C3.3 0 6.6 0 10 0 C10 3.3 10 6.6 10 10 C6.7 10 3.4 10 0 10 C0 6.7 0 3.4 0 0 Z " fill="#84673C" transform="translate(340,160)"/>
<path d="M0 0 C3.3 0 6.6 0 10 0 C10 3.3 10 6.6 10 10 C6.7 10 3.4 10 0 10 C0 6.7 0 3.4 0 0 Z " fill="#805E36" transform="translate(320,160)"/>
<path d="M0 0 C3.3 0 6.6 0 10 0 C10 3.3 10 6.6 10 10 C6.7 10 3.4 10 0 10 C0 6.7 0 3.4 0 0 Z " fill="#5D4324" transform="translate(310,160)"/>
<path d="M0 0 C3.3 0 6.6 0 10 0 C10 3.3 10 6.6 10 10 C6.7 10 3.4 10 0 10 C0 6.7 0 3.4 0 0 Z " fill="#5D8FC2" transform="translate(170,160)"/>
<path d="M0 0 C3.3 0 6.6 0 10 0 C10 3.3 10 6.6 10 10 C6.7 10 3.4 10 0 10 C0 6.7 0 3.4 0 0 Z " fill="#D4E5F7" transform="translate(130,160)"/>
<path d="M0 0 C3.3 0 6.6 0 10 0 C10 3.3 10 6.6 10 10 C6.7 10 3.4 10 0 10 C0 6.7 0 3.4 0 0 Z " fill="#805E36" transform="translate(70,160)"/>
<path d="M0 0 C3.3 0 6.6 0 10 0 C10 3.3 10 6.6 10 10 C6.7 10 3.4 10 0 10 C0 6.7 0 3.4 0 0 Z " fill="#5D4324" transform="translate(60,160)"/>
<path d="M0 0 C3.3 0 6.6 0 10 0 C10 3.3 10 6.6 10 10 C6.7 10 3.4 10 0 10 C0 6.7 0 3.4 0 0 Z " fill="#84673C" transform="translate(380,150)"/>
<path d="M0 0 C3.3 0 6.6 0 10 0 C10 3.3 10 6.6 10 10 C6.7 10 3.4 10 0 10 C0 6.7 0 3.4 0 0 Z " fill="#C29D62" transform="translate(350,150)"/>
<path d="M0 0 C3.3 0 6.6 0 10 0 C10 3.3 10 6.6 10 10 C6.7 10 3.4 10 0 10 C0 6.7 0 3.4 0 0 Z " fill="#FFF8F1" transform="translate(150,150)"/>
<path d="M0 0 C3.3 0 6.6 0 10 0 C10 3.3 10 6.6 10 10 C6.7 10 3.4 10 0 10 C0 6.7 0 3.4 0 0 Z " fill="#AF8F55" transform="translate(100,150)"/>
<path d="M0 0 C3.3 0 6.6 0 10 0 C10 3.3 10 6.6 10 10 C6.7 10 3.4 10 0 10 C0 6.7 0 3.4 0 0 Z " fill="#84673C" transform="translate(370,140)"/>
<path d="M0 0 C3.3 0 6.6 0 10 0 C10 3.3 10 6.6 10 10 C6.7 10 3.4 10 0 10 C0 6.7 0 3.4 0 0 Z " fill="#C29D62" transform="translate(360,140)"/>
<path d="M0 0 C3.3 0 6.6 0 10 0 C10 3.3 10 6.6 10 10 C6.7 10 3.4 10 0 10 C0 6.7 0 3.4 0 0 Z " fill="#AF8F55" transform="translate(350,140)"/>
<path d="M0 0 C3.3 0 6.6 0 10 0 C10 3.3 10 6.6 10 10 C6.7 10 3.4 10 0 10 C0 6.7 0 3.4 0 0 Z " fill="#65482A" transform="translate(310,140)"/>
<path d="M0 0 C3.3 0 6.6 0 10 0 C10 3.3 10 6.6 10 10 C6.7 10 3.4 10 0 10 C0 6.7 0 3.4 0 0 Z " fill="#B8945F" transform="translate(300,140)"/>
<path d="M0 0 C3.3 0 6.6 0 10 0 C10 3.3 10 6.6 10 10 C6.7 10 3.4 10 0 10 C0 6.7 0 3.4 0 0 Z " fill="#B8945F" transform="translate(220,140)"/>
<path d="M0 0 C3.3 0 6.6 0 10 0 C10 3.3 10 6.6 10 10 C6.7 10 3.4 10 0 10 C0 6.7 0 3.4 0 0 Z " fill="#9F7E4D" transform="translate(150,140)"/>
<path d="M0 0 C3.3 0 6.6 0 10 0 C10 3.3 10 6.6 10 10 C6.7 10 3.4 10 0 10 C0 6.7 0 3.4 0 0 Z " fill="#AF8F55" transform="translate(10,140)"/>
<path d="M0 0 C3.3 0 6.6 0 10 0 C10 3.3 10 6.6 10 10 C6.7 10 3.4 10 0 10 C0 6.7 0 3.4 0 0 Z " fill="#973716" transform="translate(160,130)"/>
<path d="M0 0 C3.3 0 6.6 0 10 0 C10 3.3 10 6.6 10 10 C6.7 10 3.4 10 0 10 C0 6.7 0 3.4 0 0 Z " fill="#B8945F" transform="translate(370,120)"/>
<path d="M0 0 C3.3 0 6.6 0 10 0 C10 3.3 10 6.6 10 10 C6.7 10 3.4 10 0 10 C0 6.7 0 3.4 0 0 Z " fill="#B8945F" transform="translate(300,120)"/>
<path d="M0 0 C3.3 0 6.6 0 10 0 C10 3.3 10 6.6 10 10 C6.7 10 3.4 10 0 10 C0 6.7 0 3.4 0 0 Z " fill="#B8945F" transform="translate(180,120)"/>
<path d="M0 0 C3.3 0 6.6 0 10 0 C10 3.3 10 6.6 10 10 C6.7 10 3.4 10 0 10 C0 6.7 0 3.4 0 0 Z " fill="#D4E5F7" transform="translate(130,120)"/>
<path d="M0 0 C3.3 0 6.6 0 10 0 C10 3.3 10 6.6 10 10 C6.7 10 3.4 10 0 10 C0 6.7 0 3.4 0 0 Z " fill="#C29D62" transform="translate(100,120)"/>
<path d="M0 0 C3.3 0 6.6 0 10 0 C10 3.3 10 6.6 10 10 C6.7 10 3.4 10 0 10 C0 6.7 0 3.4 0 0 Z " fill="#74542F" transform="translate(60,120)"/>
<path d="M0 0 C3.3 0 6.6 0 10 0 C10 3.3 10 6.6 10 10 C6.7 10 3.4 10 0 10 C0 6.7 0 3.4 0 0 Z " fill="#B8945F" transform="translate(20,120)"/>
<path d="M0 0 C3.3 0 6.6 0 10 0 C10 3.3 10 6.6 10 10 C6.7 10 3.4 10 0 10 C0 6.7 0 3.4 0 0 Z " fill="#846C4B" transform="translate(340,110)"/>
<path d="M0 0 C3.3 0 6.6 0 10 0 C10 3.3 10 6.6 10 10 C6.7 10 3.4 10 0 10 C0 6.7 0 3.4 0 0 Z " fill="#5D4324" transform="translate(310,110)"/>
<path d="M0 0 C3.3 0 6.6 0 10 0 C10 3.3 10 6.6 10 10 C6.7 10 3.4 10 0 10 C0 6.7 0 3.4 0 0 Z " fill="#A94725" transform="translate(160,110)"/>
<path d="M0 0 C3.3 0 6.6 0 10 0 C10 3.3 10 6.6 10 10 C6.7 10 3.4 10 0 10 C0 6.7 0 3.4 0 0 Z " fill="#5D4324" transform="translate(60,110)"/>
<path d="M0 0 C3.3 0 6.6 0 10 0 C10 3.3 10 6.6 10 10 C6.7 10 3.4 10 0 10 C0 6.7 0 3.4 0 0 Z " fill="#AF8F55" transform="translate(350,100)"/>
<path d="M0 0 C3.3 0 6.6 0 10 0 C10 3.3 10 6.6 10 10 C6.7 10 3.4 10 0 10 C0 6.7 0 3.4 0 0 Z " fill="#AF8F55" transform="translate(100,100)"/>
<path d="M0 0 C3.3 0 6.6 0 10 0 C10 3.3 10 6.6 10 10 C6.7 10 3.4 10 0 10 C0 6.7 0 3.4 0 0 Z " fill="#8B673C" transform="translate(320,90)"/>
<path d="M0 0 C3.3 0 6.6 0 10 0 C10 3.3 10 6.6 10 10 C6.7 10 3.4 10 0 10 C0 6.7 0 3.4 0 0 Z " fill="#B8945F" transform="translate(300,90)"/>
<path d="M0 0 C3.3 0 6.6 0 10 0 C10 3.3 10 6.6 10 10 C6.7 10 3.4 10 0 10 C0 6.7 0 3.4 0 0 Z " fill="#B8945F" transform="translate(220,90)"/>
<path d="M0 0 C3.3 0 6.6 0 10 0 C10 3.3 10 6.6 10 10 C6.7 10 3.4 10 0 10 C0 6.7 0 3.4 0 0 Z " fill="#8B673C" transform="translate(70,90)"/>
<path d="M0 0 C3.3 0 6.6 0 10 0 C10 3.3 10 6.6 10 10 C6.7 10 3.4 10 0 10 C0 6.7 0 3.4 0 0 Z " fill="#AF8F55" transform="translate(350,80)"/>
<path d="M0 0 C3.3 0 6.6 0 10 0 C10 3.3 10 6.6 10 10 C6.7 10 3.4 10 0 10 C0 6.7 0 3.4 0 0 Z " fill="#C29D62" transform="translate(40,80)"/>
<path d="M0 0 C3.3 0 6.6 0 10 0 C10 3.3 10 6.6 10 10 C6.7 10 3.4 10 0 10 C0 6.7 0 3.4 0 0 Z " fill="#B8945F" transform="translate(300,70)"/>
<path d="M0 0 C3.3 0 6.6 0 10 0 C10 3.3 10 6.6 10 10 C6.7 10 3.4 10 0 10 C0 6.7 0 3.4 0 0 Z " fill="#B8945F" transform="translate(180,70)"/>
<path d="M0 0 C3.3 0 6.6 0 10 0 C10 3.3 10 6.6 10 10 C6.7 10 3.4 10 0 10 C0 6.7 0 3.4 0 0 Z " fill="#C29D62" transform="translate(100,70)"/>
<path d="M0 0 C3.3 0 6.6 0 10 0 C10 3.3 10 6.6 10 10 C6.7 10 3.4 10 0 10 C0 6.7 0 3.4 0 0 Z " fill="#C29D62" transform="translate(50,70)"/>
<path d="M0 0 C3.3 0 6.6 0 10 0 C10 3.3 10 6.6 10 10 C6.7 10 3.4 10 0 10 C0 6.7 0 3.4 0 0 Z " fill="#AF8F55" transform="translate(30,70)"/>
<path d="M0 0 C3.3 0 6.6 0 10 0 C10 3.3 10 6.6 10 10 C6.7 10 3.4 10 0 10 C0 6.7 0 3.4 0 0 Z " fill="#846C4B" transform="translate(220,60)"/>
<path d="M0 0 C3.3 0 6.6 0 10 0 C10 3.3 10 6.6 10 10 C6.7 10 3.4 10 0 10 C0 6.7 0 3.4 0 0 Z " fill="#846C4B" transform="translate(170,60)"/>
<path d="M0 0 C3.3 0 6.6 0 10 0 C10 3.3 10 6.6 10 10 C6.7 10 3.4 10 0 10 C0 6.7 0 3.4 0 0 Z " fill="#664D28" transform="translate(330,50)"/>
<path d="M0 0 C3.3 0 6.6 0 10 0 C10 3.3 10 6.6 10 10 C6.7 10 3.4 10 0 10 C0 6.7 0 3.4 0 0 Z " fill="#8B673C" transform="translate(320,50)"/>
<path d="M0 0 C3.3 0 6.6 0 10 0 C10 3.3 10 6.6 10 10 C6.7 10 3.4 10 0 10 C0 6.7 0 3.4 0 0 Z " fill="#74542F" transform="translate(310,50)"/>
<path d="M0 0 C3.3 0 6.6 0 10 0 C10 3.3 10 6.6 10 10 C6.7 10 3.4 10 0 10 C0 6.7 0 3.4 0 0 Z " fill="#8B673C" transform="translate(70,50)"/>
<path d="M0 0 C3.3 0 6.6 0 10 0 C10 3.3 10 6.6 10 10 C6.7 10 3.4 10 0 10 C0 6.7 0 3.4 0 0 Z " fill="#74542F" transform="translate(60,50)"/>
<path d="M0 0 C3.3 0 6.6 0 10 0 C10 2.97 10 5.94 10 9 C6.7 9 3.4 9 0 9 C0 6.03 0 3.06 0 0 Z " fill="#C29D62" transform="translate(250,290)"/>
<path d="M0 0 C3.3 0 6.6 0 10 0 C10 2.97 10 5.94 10 9 C6.7 9 3.4 9 0 9 C0 6.03 0 3.06 0 0 Z " fill="#B8945F" transform="translate(300,240)"/>
<path d="M0 0 C3.3 0 6.6 0 10 0 C10 2.64 10 5.28 10 8 C6.7 8 3.4 8 0 8 C0 5.36 0 2.72 0 0 Z " fill="#6F502F" transform="translate(360,312)"/>
<path d="M0 0 C2.64 0 5.28 0 8 0 C8 3.3 8 6.6 8 10 C5.36 10 2.72 10 0 10 C0 6.7 0 3.4 0 0 Z " fill="#C29D62" transform="translate(240,300)"/>
<path d="M0 0 C3.3 0 6.6 0 10 0 C10 5.61 10 11.22 10 17 C9.34 17 8.68 17 8 17 C8 13.04 8 9.08 8 5 C5.36 5 2.72 5 0 5 C0 3.35 0 1.7 0 0 Z " fill="#9F7E4D" transform="translate(340,220)"/>
<path d="M0 0 C3.3 0 6.6 0 10 0 C10 1.65 10 3.3 10 5 C6.7 5 3.4 5 0 5 C0 3.35 0 1.7 0 0 Z " fill="#74542F" transform="translate(310,220)"/>
</svg>
